<svg width="1024" height="1024" viewBox="0 0 1024 1024" fill="none" xmlns="http://www.w3.org/2000/svg">
<path d="M281.077 184.246L509.066 88.2666L723.127 184.246L880.267 190.604V258.123V526.078L846.659 639.013L777.93 757.095L650.462 876.388L518.452 936.337L467.889 916.354L352.834 846.716L281.077 787.675L225.366 715.009L186.309 651.729L171.473 599.955L139.984 541.822V190.604L281.077 184.246Z" fill="url(#paint0_linear_51_789)"/>
<path d="M224.048 687.887H244.373V728.537H264.697V750.058H285.022V771.578H305.347V790.708H325.673V812.229H371.105V833.749H389.039V855.27H428.494V876.79H467.948V898.311H493.055V911.462H531.315V898.311H556.423V876.79H595.878V855.27H635.331V833.749H653.265V812.229H698.698V790.708H719.023V771.578H739.348V750.058H759.674V728.537H779.998V687.887H800.323V668.758H840.973V711.799H820.648V754.84H800.324V771.578H779.998V793.099H759.673V814.619H739.348V833.749H716.632V855.27H698.698V876.79H678.374V898.312H638.919V919.831H593.486V941.353H549.249V954.503H475.122V941.353H430.885V919.831H385.452V898.312H345.998V876.79H325.673V855.27H307.739V833.749H285.022V814.619H264.697V793.099H244.373V771.578H224.048V754.84H203.722V711.799H183.397V668.758H224.048V687.887ZM571.966 87.7002H615.007V109.221H658.048V131.938H701.09V152.262H778.802V214.433H701.089V194.108H658.048V171.392H615.006V149.871H571.966V129.546H452.406V149.871H409.364V171.392H366.323V194.108H323.282V214.433H163.072V563.545H183.397V625.716H203.722V668.757H163.072V625.716H142.747V563.545H122.423V171.392H245.568V152.262H323.281V131.938H366.323V109.221H409.364V87.7002H452.406V67.375H571.966V87.7002ZM901.949 214.433H901.948V563.545H881.623V625.716H861.299V668.757H820.648V625.716H840.973V563.545H861.299V214.433H778.803V171.392H901.949V214.433Z" fill="#152A32"/>
<path d="M431.969 582.007C418.689 588.699 403.683 594.847 386.225 601.049L387.757 605.359L389.288 609.671C413.658 601.014 433.661 592.339 451.017 582.007H496.186C490.406 587.018 484.615 591.621 478.664 595.942L476.612 597.416C458.564 610.246 438.774 620.743 413.087 632.219L416.819 640.572C442.422 629.134 462.595 618.496 481.101 605.445C497.79 602.148 510.051 600.73 521.167 602.034C532.347 603.345 542.721 607.457 555.443 615.892L555.512 615.938L555.583 615.98L608.375 648.296L610.763 644.395L613.152 640.492L560.408 608.206C546.879 599.25 535.177 594.465 522.232 592.947C514.28 592.015 505.994 592.333 496.716 593.535C501.125 589.905 505.492 586.078 509.875 582.007H573.519C575.402 583.858 577.346 585.666 579.364 587.438C594.31 600.559 613.038 611.533 639.544 623.903L641.478 619.758L643.414 615.612C618.256 603.872 600.816 593.681 587.077 582.007H642.901C648.086 584.808 653.567 587.564 659.362 590.301L661.316 586.164L663.269 582.027C663.255 582.021 663.241 582.014 663.226 582.007H764.265L663.788 686.245H261.454L365.692 582.007H431.969ZM488.221 683.204H534.615V674.054H488.221V683.204ZM510.342 632.688C490.134 632.428 470.745 641.568 447.183 658.259L449.828 661.991L452.472 665.725C475.611 649.333 493.003 641.615 510.224 641.837C527.468 642.059 545.538 650.255 569.978 668.236L572.689 664.551L575.4 660.866C550.539 642.575 530.528 632.949 510.342 632.688ZM510.883 527.346C499.533 542.405 487.923 554.764 474.889 565.381C467.435 571.453 459.545 576.93 451.017 582.007H431.969C445.989 574.941 458.085 567.268 469.111 558.287C479.879 549.516 489.696 539.438 499.314 527.346H510.883ZM550.135 534.354L551.162 536.193C561.75 555.035 571.894 568.703 585.401 580.562C585.953 581.046 586.513 581.527 587.077 582.007H573.519C562.756 571.425 554.033 559.423 545.376 544.512C532.747 559.211 521.257 571.434 509.875 582.007H496.186C510.927 569.226 525.593 553.79 542.638 533.617L546.921 528.55L550.135 534.354ZM592.82 527.346C607.218 549.643 629.027 565.848 663.226 582.007H642.901C616.463 567.721 597.75 552.209 584.609 531.492C583.746 530.131 582.909 528.749 582.095 527.346H592.82ZM460.452 527.909C436.782 549.282 407.547 563.707 366.815 577.382L363.903 568.708C399.826 556.648 425.917 544.241 447 527.346H461.071C460.865 527.534 460.659 527.722 460.452 527.909ZM644.76 527.346C651.915 533.049 660.65 538.47 671.684 544.001L669.634 548.091L667.584 552.18C651.829 544.282 640.15 536.387 630.957 527.346H644.76ZM384.228 527.346C376.254 530.706 367.762 533.469 358.298 536.171L357.042 531.772L355.786 527.373C355.818 527.364 355.849 527.355 355.881 527.346H384.228ZM365.199 423.108C361.012 426.744 356.566 430.32 351.687 434.083L354.481 437.705L357.275 441.328C365.321 435.122 372.254 429.375 378.759 423.108H423.546C414.163 437.487 405.458 448.099 395.918 456.877C383.648 468.166 369.79 476.615 350.837 486.087L352.882 490.179L354.927 494.271C374.212 484.634 388.935 475.735 402.113 463.61C413.474 453.157 423.53 440.449 434.405 423.108H465.333L445.615 463.091C428.539 484.907 415.151 498.299 401.656 507.547C388.15 516.802 374.274 522.091 355.881 527.346H354.304L253.827 423.108H365.199ZM554.431 423.108C555.72 425.722 556.794 428.522 557.614 431.498C561.396 473.071 568.198 503.379 582.095 527.346H510.883C519.239 516.258 527.454 503.707 535.99 489.311L532.054 486.978L528.12 484.645C518.226 501.33 508.869 515.332 499.314 527.346H461.071C484.428 506.048 502.036 478.185 520.219 438.324L511.894 434.527C493.785 474.227 476.657 500.95 454.32 521.119C451.946 523.263 449.508 525.336 447 527.346H384.228C392.122 524.02 399.509 520.109 406.828 515.094C421.499 505.04 435.632 490.734 453.113 468.358L453.403 467.987L453.611 467.565L475.534 423.108H554.431ZM592.324 423.108C595.738 435.395 597.444 448.962 598.516 468.039L598.552 468.69L598.769 469.305C605.811 489.262 612.349 504.779 622.566 517.923C625.128 521.218 627.906 524.345 630.957 527.346H592.82C592.658 527.095 592.496 526.843 592.336 526.591C577.875 503.794 570.645 474.074 566.687 430.256L566.652 429.864L566.55 429.484L566.263 428.45C565.735 426.612 565.124 424.831 564.44 423.108H592.324ZM632.31 423.108C634.083 431.938 635.199 441.609 635.953 453.356L635.98 453.789L636.09 454.21C639.537 467.522 643.152 477.432 648.505 485.751C653.897 494.133 660.859 500.605 670.532 507.365L673.153 503.615L675.774 499.866C666.689 493.517 660.734 487.848 656.2 480.801C651.673 473.764 648.373 465.06 645.052 452.316C644.332 441.274 643.283 431.845 641.633 423.108H652.4L668.259 438.967C668.669 445.449 668.783 452.07 668.58 458.821L673.152 458.96L677.725 459.098C677.833 455.533 677.855 452.001 677.796 448.504L756.638 527.346H644.76C638.815 522.606 633.96 517.671 629.79 512.307C620.632 500.525 614.52 486.38 607.611 466.859C606.575 448.791 604.937 435.318 601.795 423.108H632.31ZM660.028 367.811C670.859 391.61 677.29 418.808 677.796 448.504L668.259 438.967C666.598 412.735 660.069 388.79 649.924 367.811H660.028ZM568.061 367.811C574.279 372.753 580.208 378.634 585.721 385.475L586.849 386.895L587.089 387.201L587.273 387.543C594.149 400.292 598.701 411.087 601.795 423.108H592.324C589.446 412.751 585.356 403.304 579.406 392.234C571.037 381.611 561.711 373.528 551.943 367.811H568.061ZM476.372 367.811C461.051 377.184 448.03 392.626 440.027 413.732L439.886 414.103L439.684 414.443C437.899 417.457 436.141 420.341 434.405 423.108H423.546C426.174 419.081 428.855 414.758 431.623 410.097C438.402 392.401 448.569 378.167 460.807 367.811H476.372ZM420.302 367.811C404.145 394.544 392.397 409.969 378.759 423.108H365.199C380.662 409.68 392.574 395.425 409.589 367.811H420.302ZM468.677 416.385C494.789 375.07 548.929 384.049 564.44 423.108H554.431C539.892 393.615 497.702 387.859 476.531 421.087L475.534 423.108H465.333L468.441 416.806L468.549 416.589L468.677 416.385ZM621.196 369.444L621.375 369.693L621.519 369.964C629.428 384.806 634.802 396.887 638.455 409.644C639.71 414.028 640.756 418.471 641.633 423.108H632.31C631.554 419.339 630.678 415.722 629.659 412.162C626.273 400.339 621.258 388.959 613.589 374.541C611.916 372.223 610.215 369.979 608.488 367.811H620.007L621.196 369.444ZM376.959 367.811C374.943 371.411 372.971 375.128 371.05 378.964L362.868 374.866C364.067 372.471 365.288 370.12 366.525 367.811H376.959ZM672.051 367.811H660.028C639.147 321.925 601.917 288.67 559.295 274.486C525.609 263.277 488.604 264.015 453.89 279.864C420.898 294.928 390.272 323.499 366.525 367.811H269.717L373.955 263.572H772.528L672.051 367.811ZM457.69 288.188C490.176 273.356 524.781 272.644 556.405 283.168C595.296 296.11 629.754 326.101 649.924 367.811H620.007L619.852 367.599C591.497 329.14 554.983 310.057 518.053 309.11C480.59 308.15 443.418 325.873 414.673 359.547L414.423 359.839L414.225 360.169C412.636 362.826 411.092 365.37 409.589 367.811H376.959C399.548 327.459 427.864 301.805 457.69 288.188ZM421.87 365.21C449.079 333.478 483.634 317.381 517.819 318.257C549.87 319.079 582.227 334.837 608.488 367.811H568.061C547.426 351.409 523.594 345.36 501.088 349.004C486.508 351.364 472.682 357.762 460.807 367.811H420.302C420.82 366.955 421.344 366.089 421.87 365.21ZM502.551 358.035C518.697 355.421 535.915 358.429 551.943 367.811H476.372C484.578 362.79 493.442 359.51 502.551 358.035Z" fill="#14F195"/>
<path d="M431.969 582.007C418.689 588.699 403.683 594.847 386.225 601.049L387.757 605.359L389.288 609.671C413.658 601.014 433.661 592.339 451.017 582.007H496.186C490.406 587.018 484.615 591.621 478.664 595.942L476.612 597.416C458.564 610.246 438.774 620.743 413.087 632.219L416.819 640.572C442.422 629.134 462.595 618.496 481.101 605.445C497.79 602.148 510.051 600.73 521.167 602.034C532.347 603.345 542.721 607.457 555.443 615.892L555.512 615.938L555.583 615.98L608.375 648.296L610.763 644.395L613.152 640.492L560.408 608.206C546.879 599.25 535.177 594.465 522.232 592.947C514.28 592.015 505.994 592.333 496.716 593.535C501.125 589.905 505.492 586.078 509.875 582.007H573.519C575.402 583.858 577.346 585.666 579.364 587.438C594.31 600.559 613.038 611.533 639.544 623.903L641.478 619.758L643.414 615.612C618.256 603.872 600.816 593.681 587.077 582.007H642.901C648.086 584.808 653.567 587.564 659.362 590.301L661.316 586.164L663.269 582.027C663.255 582.021 663.241 582.014 663.226 582.007H764.265L663.788 686.245H261.454L365.692 582.007H431.969ZM488.221 683.204H534.615V674.054H488.221V683.204ZM510.342 632.688C490.134 632.428 470.745 641.568 447.183 658.259L449.828 661.991L452.472 665.725C475.611 649.333 493.003 641.615 510.224 641.837C527.468 642.059 545.538 650.255 569.978 668.236L572.689 664.551L575.4 660.866C550.539 642.575 530.528 632.949 510.342 632.688ZM365.199 423.108C361.012 426.744 356.566 430.32 351.687 434.083L354.481 437.705L357.275 441.328C365.321 435.122 372.254 429.375 378.759 423.108H423.546C414.163 437.487 405.458 448.099 395.918 456.877C383.648 468.166 369.79 476.615 350.837 486.087L352.882 490.179L354.927 494.271C374.212 484.634 388.935 475.735 402.113 463.61C413.474 453.157 423.53 440.449 434.405 423.108H465.333L445.615 463.091C428.539 484.907 415.151 498.299 401.656 507.547C388.15 516.802 374.274 522.091 355.881 527.346H354.304L253.827 423.108H365.199ZM554.431 423.108C555.72 425.722 556.794 428.522 557.614 431.498C561.396 473.071 568.198 503.379 582.095 527.346H510.883C519.239 516.258 527.454 503.707 535.99 489.311L532.054 486.978L528.12 484.645C518.226 501.33 508.869 515.332 499.314 527.346H461.071C484.428 506.048 502.036 478.185 520.219 438.324L511.894 434.527C493.785 474.227 476.657 500.95 454.32 521.119C451.946 523.263 449.508 525.336 447 527.346H384.228C392.122 524.02 399.509 520.109 406.828 515.094C421.499 505.04 435.632 490.734 453.113 468.358L453.403 467.987L453.611 467.565L475.534 423.108H554.431ZM592.324 423.108C595.738 435.395 597.444 448.962 598.516 468.039L598.552 468.69L598.769 469.305C605.811 489.262 612.349 504.779 622.566 517.923C625.128 521.218 627.906 524.345 630.957 527.346H592.82C592.658 527.095 592.496 526.843 592.336 526.591C577.875 503.794 570.645 474.074 566.687 430.256L566.652 429.864L566.55 429.484L566.263 428.45C565.735 426.612 565.124 424.831 564.44 423.108H592.324ZM632.31 423.108C634.083 431.938 635.199 441.609 635.953 453.356L635.98 453.789L636.09 454.21C639.537 467.522 643.152 477.432 648.505 485.751C653.897 494.133 660.859 500.605 670.532 507.365L673.153 503.615L675.774 499.866C666.689 493.517 660.734 487.848 656.2 480.801C651.673 473.764 648.373 465.06 645.052 452.316C644.332 441.274 643.283 431.845 641.633 423.108H652.4L668.259 438.967C668.669 445.449 668.783 452.07 668.58 458.821L673.152 458.96L677.725 459.098C677.833 455.533 677.855 452.001 677.796 448.504L756.638 527.346H644.76C638.815 522.606 633.96 517.671 629.79 512.307C620.632 500.525 614.52 486.38 607.611 466.859C606.575 448.791 604.937 435.318 601.795 423.108H632.31ZM672.051 367.811H660.028C639.147 321.925 601.917 288.67 559.295 274.486C525.609 263.277 488.604 264.015 453.89 279.864C420.898 294.928 390.272 323.499 366.525 367.811H269.717L373.955 263.572H772.528L672.051 367.811ZM457.69 288.188C490.176 273.356 524.781 272.644 556.405 283.168C595.296 296.11 629.754 326.101 649.924 367.811H620.007L619.852 367.599C591.497 329.14 554.983 310.057 518.053 309.11C480.59 308.15 443.418 325.873 414.673 359.547L414.423 359.839L414.225 360.169C412.636 362.826 411.092 365.37 409.589 367.811H376.959C399.548 327.459 427.864 301.805 457.69 288.188ZM421.87 365.21C449.079 333.478 483.634 317.381 517.819 318.257C549.87 319.079 582.227 334.837 608.488 367.811H568.061C547.426 351.409 523.594 345.36 501.088 349.004C486.508 351.364 472.682 357.762 460.807 367.811H420.302C420.82 366.955 421.344 366.089 421.87 365.21ZM502.551 358.035C518.697 355.421 535.915 358.429 551.943 367.811H476.372C484.578 362.79 493.442 359.51 502.551 358.035Z" fill="#152A32"/>
<defs>
<linearGradient id="paint0_linear_51_789" x1="953.236" y1="183.035" x2="95.1736" y2="882.443" gradientUnits="userSpaceOnUse">
<stop stop-color="#14F195"/>
<stop offset="1" stop-color="#9945FF"/>
</linearGradient>
</defs>
</svg>
