<svg width="1024" height="1024" viewBox="0 0 1024 1024" fill="none" xmlns="http://www.w3.org/2000/svg">
<path d="M280.654 184.871L508.643 88.8916L722.705 184.871L879.844 191.229V258.748V526.703L846.237 639.638L777.507 757.72L650.039 877.013L518.029 936.962L467.466 916.979L352.412 847.341L280.654 788.3L224.944 715.634L185.886 652.354L171.05 600.58L139.561 542.447V191.229L280.654 184.871Z" fill="url(#paint0_linear_51_713)"/>
<path d="M223.625 688.512H243.95V729.162H264.274V750.683H284.6V772.203H304.925V791.333H325.25V812.854H370.683V834.374H388.616V855.895H428.071V877.415H467.525V898.936H492.633V912.087H530.893V898.936H556V877.415H595.455V855.895H634.908V834.374H652.843V812.854H698.275V791.333H718.601V772.203H738.926V750.683H759.251V729.162H779.575V688.512H799.9V669.383H840.551V712.424H820.226V755.465H799.901V772.203H779.575V793.724H759.25V815.244H738.926V834.374H716.209V855.895H698.275V877.415H677.951V898.937H638.496V920.456H593.063V941.978H548.826V955.128H474.699V941.978H430.462V920.456H385.029V898.937H345.575V877.415H325.25V855.895H307.316V834.374H284.6V815.244H264.274V793.724H243.95V772.203H223.625V755.465H203.3V712.424H182.975V669.383H223.625V688.512ZM571.543 88.3252H614.584V109.846H657.625V132.562H700.667V152.887H778.379V215.058H700.666V194.733H657.625V172.017H614.583V150.496H571.543V130.171H451.983V150.496H408.941V172.017H365.9V194.733H322.859V215.058H162.649V564.17H182.975V626.341H203.3V669.382H162.649V626.341H142.324V564.17H122V172.017H245.146V152.887H322.858V132.562H365.9V109.846H408.941V88.3252H451.983V68H571.543V88.3252ZM901.526 215.058H901.525V564.17H881.2V626.341H860.876V669.382H820.226V626.341H840.551V564.17H860.876V215.058H778.381V172.017H901.526V215.058Z" fill="white"/>
<path d="M431.546 582.632C418.267 589.324 403.261 595.472 385.803 601.674L387.334 605.984L388.865 610.296C413.235 601.639 433.238 592.964 450.595 582.632H495.764C489.984 587.643 484.192 592.246 478.241 596.567L476.189 598.041C458.142 610.871 438.351 621.368 412.664 632.844L416.396 641.197C441.999 629.759 462.172 619.121 480.679 606.07C497.367 602.773 509.628 601.355 520.744 602.659C531.925 603.97 542.299 608.082 555.021 616.517L555.09 616.562L555.16 616.605L607.952 648.921L610.341 645.02L612.729 641.117L559.985 608.831C546.456 599.875 534.754 595.09 521.81 593.572C513.857 592.64 505.572 592.958 496.293 594.16C500.702 590.53 505.069 586.703 509.452 582.632H573.097C574.979 584.483 576.923 586.291 578.941 588.062C593.887 601.184 612.615 612.158 639.121 624.528L641.056 620.383L642.991 616.237C617.834 604.497 600.393 594.306 586.654 582.632H642.479C647.663 585.433 653.144 588.189 658.939 590.926L660.894 586.789L662.847 582.652C662.832 582.646 662.818 582.639 662.804 582.632H763.843L663.365 686.87H261.031L365.27 582.632H431.546ZM487.799 683.829H534.192V674.679H487.799V683.829ZM509.919 633.313C489.711 633.053 470.322 642.193 446.761 658.884L449.405 662.616L452.05 666.35C475.189 649.958 492.58 642.24 509.802 642.462C527.045 642.684 545.115 650.88 569.556 668.861L572.267 665.176L574.978 661.491C550.117 643.2 530.105 633.574 509.919 633.313ZM510.46 527.971C499.111 543.03 487.501 555.389 474.467 566.006C467.012 572.078 459.123 577.555 450.595 582.632H431.546C445.566 575.566 457.663 567.893 468.688 558.912C479.456 550.141 489.274 540.063 498.892 527.971H510.46ZM549.713 534.979L550.739 536.818C561.327 555.66 571.471 569.328 584.979 581.187C585.531 581.671 586.09 582.152 586.654 582.632H573.097C562.334 572.05 553.611 560.048 544.953 545.137C532.325 559.836 520.834 572.059 509.452 582.632H495.764C510.504 569.851 525.17 554.415 542.216 534.242L546.498 529.175L549.713 534.979ZM592.397 527.971C606.795 550.268 628.604 566.473 662.804 582.632H642.479C616.041 568.346 597.328 552.834 584.187 532.117C583.323 530.756 582.487 529.374 581.673 527.971H592.397ZM460.029 528.534C436.359 549.907 407.124 564.332 366.393 578.007L363.48 569.333C399.403 557.273 425.495 544.866 446.577 527.971H460.648C460.442 528.159 460.236 528.347 460.029 528.534ZM644.338 527.971C651.493 533.674 660.228 539.095 671.262 544.626L669.211 548.716L667.161 552.805C651.406 544.907 639.728 537.012 630.534 527.971H644.338ZM383.806 527.971C375.831 531.331 367.339 534.094 357.875 536.796L356.619 532.397L355.363 527.998C355.395 527.989 355.426 527.98 355.458 527.971H383.806ZM364.776 423.733C360.59 427.369 356.143 430.945 351.265 434.708L354.059 438.33L356.853 441.953C364.898 435.747 371.832 430 378.336 423.733H423.123C413.741 438.112 405.035 448.724 395.495 457.502C383.226 468.791 369.367 477.24 350.414 486.712L352.459 490.804L354.504 494.896C373.789 485.259 388.512 476.36 401.69 464.235C413.052 453.782 423.107 441.074 433.982 423.733H464.91L445.192 463.716C428.117 485.532 414.729 498.924 401.233 508.172C387.728 517.427 373.851 522.716 355.458 527.971H353.882L253.404 423.733H364.776ZM554.009 423.733C555.297 426.347 556.371 429.147 557.191 432.123C560.974 473.696 567.776 504.004 581.673 527.971H510.46C518.816 516.883 527.031 504.332 535.567 489.936L531.632 487.603L527.697 485.27C517.804 501.955 508.446 515.957 498.892 527.971H460.648C484.005 506.673 501.613 478.81 519.796 438.949L511.472 435.152C493.362 474.852 476.235 501.575 453.897 521.744C451.523 523.888 449.085 525.961 446.577 527.971H383.806C391.7 524.645 399.087 520.734 406.405 515.719C421.076 505.665 435.21 491.359 452.69 468.983L452.98 468.612L453.188 468.19L475.111 423.733H554.009ZM591.901 423.733C595.315 436.02 597.022 449.587 598.094 468.664L598.13 469.315L598.347 469.93C605.388 489.887 611.926 505.404 622.144 518.548C624.705 521.843 627.483 524.97 630.534 527.971H592.397C592.235 527.72 592.073 527.468 591.913 527.216C577.452 504.419 570.222 474.699 566.265 430.881L566.229 430.489L566.127 430.109L565.841 429.075C565.313 427.237 564.702 425.456 564.018 423.733H591.901ZM631.888 423.733C633.66 432.563 634.776 442.234 635.53 453.981L635.558 454.414L635.667 454.835C639.114 468.147 642.73 478.057 648.082 486.376C653.475 494.758 660.437 501.23 670.109 507.99L672.73 504.24L675.352 500.491C666.267 494.142 660.312 488.473 655.777 481.426C651.25 474.389 647.951 465.685 644.63 452.941C643.909 441.899 642.86 432.47 641.21 423.733H651.978L667.836 439.592C668.246 446.074 668.361 452.695 668.157 459.446L672.729 459.585L677.303 459.723C677.41 456.158 677.433 452.626 677.373 449.129L756.216 527.971H644.338C638.392 523.231 633.537 518.296 629.367 512.932C620.209 501.15 614.098 487.005 607.188 467.484C606.152 449.416 604.514 435.943 601.372 423.733H631.888ZM659.605 368.436C670.436 392.235 676.868 419.433 677.373 449.129L667.836 439.592C666.176 413.36 659.646 389.415 649.501 368.436H659.605ZM567.639 368.436C573.857 373.378 579.785 379.259 585.299 386.1L586.427 387.52L586.666 387.826L586.851 388.168C593.726 400.917 598.278 411.712 601.372 423.733H591.901C589.024 413.376 584.933 403.929 578.983 392.859C570.614 382.236 561.288 374.153 551.521 368.436H567.639ZM475.949 368.436C460.629 377.809 447.607 393.251 439.604 414.357L439.464 414.728L439.262 415.068C437.476 418.082 435.718 420.966 433.982 423.733H423.123C425.751 419.706 428.433 415.383 431.2 410.722C437.979 393.026 448.146 378.792 460.385 368.436H475.949ZM419.88 368.436C403.723 395.169 391.974 410.594 378.336 423.733H364.776C380.239 410.305 392.151 396.05 409.166 368.436H419.88ZM468.255 417.01C494.366 375.695 548.507 384.674 564.018 423.733H554.009C539.469 394.24 497.28 388.484 476.108 421.712L475.111 423.733H464.91L468.019 417.431L468.126 417.214L468.255 417.01ZM620.773 370.069L620.952 370.318L621.097 370.589C629.005 385.431 634.38 397.512 638.032 410.269C639.288 414.653 640.334 419.096 641.21 423.733H631.888C631.131 419.964 630.256 416.347 629.236 412.787C625.851 400.964 620.835 389.584 613.166 375.166C611.493 372.848 609.793 370.604 608.065 368.436H619.584L620.773 370.069ZM376.536 368.436C374.521 372.036 372.548 375.753 370.627 379.589L362.445 375.491C363.645 373.096 364.865 370.745 366.103 368.436H376.536ZM671.628 368.436H659.605C638.724 322.55 601.494 289.295 558.872 275.111C525.186 263.902 488.182 264.64 453.468 280.489C420.475 295.553 389.849 324.124 366.103 368.436H269.294L373.532 264.197H772.105L671.628 368.436ZM457.268 288.812C489.753 273.981 524.358 273.269 555.982 283.793C594.874 296.735 629.332 326.726 649.501 368.436H619.584L619.43 368.224C591.074 329.765 554.56 310.682 517.631 309.735C480.167 308.775 442.996 326.498 414.25 360.172L414 360.464L413.803 360.794C412.214 363.451 410.67 365.995 409.166 368.436H376.536C399.126 328.084 427.441 302.43 457.268 288.812ZM421.447 365.835C448.657 334.103 483.211 318.006 517.396 318.882C549.448 319.704 581.804 335.462 608.065 368.436H567.639C547.003 352.034 523.172 345.985 500.665 349.629C486.085 351.989 472.26 358.387 460.385 368.436H419.88C420.397 367.58 420.921 366.714 421.447 365.835ZM502.128 358.66C518.274 356.046 535.493 359.054 551.521 368.436H475.949C484.155 363.415 493.02 360.135 502.128 358.66Z" fill="#14F195"/>
<path d="M431.546 582.632C418.267 589.324 403.261 595.472 385.803 601.674L387.334 605.984L388.865 610.296C413.235 601.639 433.238 592.964 450.595 582.632H495.764C489.984 587.643 484.192 592.246 478.241 596.567L476.189 598.041C458.142 610.871 438.351 621.368 412.664 632.844L416.396 641.197C441.999 629.759 462.172 619.121 480.679 606.07C497.367 602.773 509.628 601.355 520.744 602.659C531.925 603.97 542.299 608.082 555.021 616.517L555.09 616.562L555.16 616.605L607.952 648.921L610.341 645.02L612.729 641.117L559.985 608.831C546.456 599.875 534.754 595.09 521.81 593.572C513.857 592.64 505.572 592.958 496.293 594.16C500.702 590.53 505.069 586.703 509.452 582.632H573.097C574.979 584.483 576.923 586.291 578.941 588.062C593.887 601.184 612.615 612.158 639.121 624.528L641.056 620.383L642.991 616.237C617.834 604.497 600.393 594.306 586.654 582.632H642.479C647.663 585.433 653.144 588.189 658.939 590.926L660.894 586.789L662.847 582.652C662.832 582.646 662.818 582.639 662.804 582.632H763.843L663.365 686.87H261.031L365.27 582.632H431.546ZM487.799 683.829H534.192V674.679H487.799V683.829ZM509.919 633.313C489.711 633.053 470.322 642.193 446.761 658.884L449.405 662.616L452.05 666.35C475.189 649.958 492.58 642.24 509.802 642.462C527.045 642.684 545.115 650.88 569.556 668.861L572.267 665.176L574.978 661.491C550.117 643.2 530.105 633.574 509.919 633.313ZM364.776 423.733C360.59 427.369 356.143 430.945 351.265 434.708L354.059 438.33L356.853 441.953C364.898 435.747 371.832 430 378.336 423.733H423.123C413.741 438.112 405.035 448.724 395.495 457.502C383.226 468.791 369.367 477.24 350.414 486.712L352.459 490.804L354.504 494.896C373.789 485.259 388.512 476.36 401.69 464.235C413.052 453.782 423.107 441.074 433.982 423.733H464.91L445.192 463.716C428.117 485.532 414.729 498.924 401.233 508.172C387.728 517.427 373.851 522.716 355.458 527.971H353.882L253.404 423.733H364.776ZM554.009 423.733C555.297 426.347 556.371 429.147 557.191 432.123C560.974 473.696 567.776 504.004 581.673 527.971H510.46C518.816 516.883 527.031 504.332 535.567 489.936L531.632 487.603L527.697 485.27C517.804 501.955 508.446 515.957 498.892 527.971H460.648C484.005 506.673 501.613 478.81 519.796 438.949L511.472 435.152C493.362 474.852 476.235 501.575 453.897 521.744C451.523 523.888 449.085 525.961 446.577 527.971H383.806C391.7 524.645 399.087 520.734 406.405 515.719C421.076 505.665 435.21 491.359 452.69 468.983L452.98 468.612L453.188 468.19L475.111 423.733H554.009ZM591.901 423.733C595.315 436.02 597.022 449.587 598.094 468.664L598.13 469.315L598.347 469.93C605.388 489.887 611.926 505.404 622.144 518.548C624.705 521.843 627.483 524.97 630.534 527.971H592.397C592.235 527.72 592.073 527.468 591.913 527.216C577.452 504.419 570.222 474.699 566.265 430.881L566.229 430.489L566.127 430.109L565.841 429.075C565.313 427.237 564.702 425.456 564.018 423.733H591.901ZM631.888 423.733C633.66 432.563 634.776 442.234 635.53 453.981L635.558 454.414L635.667 454.835C639.114 468.147 642.73 478.057 648.082 486.376C653.475 494.758 660.437 501.23 670.109 507.99L672.73 504.24L675.352 500.491C666.267 494.142 660.312 488.473 655.777 481.426C651.25 474.389 647.951 465.685 644.63 452.941C643.909 441.899 642.86 432.47 641.21 423.733H651.978L667.836 439.592C668.246 446.074 668.361 452.695 668.157 459.446L672.729 459.585L677.303 459.723C677.41 456.158 677.433 452.626 677.373 449.129L756.216 527.971H644.338C638.392 523.231 633.537 518.296 629.367 512.932C620.209 501.15 614.098 487.005 607.188 467.484C606.152 449.416 604.514 435.943 601.372 423.733H631.888ZM671.628 368.436H659.605C638.724 322.55 601.494 289.295 558.872 275.111C525.186 263.902 488.182 264.64 453.468 280.489C420.475 295.553 389.849 324.124 366.103 368.436H269.294L373.532 264.197H772.105L671.628 368.436ZM457.268 288.812C489.753 273.981 524.358 273.269 555.982 283.793C594.874 296.735 629.332 326.726 649.501 368.436H619.584L619.43 368.224C591.074 329.765 554.56 310.682 517.631 309.735C480.167 308.775 442.996 326.498 414.25 360.172L414 360.464L413.803 360.794C412.214 363.451 410.67 365.995 409.166 368.436H376.536C399.126 328.084 427.441 302.43 457.268 288.812ZM421.447 365.835C448.657 334.103 483.211 318.006 517.396 318.882C549.448 319.704 581.804 335.462 608.065 368.436H567.639C547.003 352.034 523.172 345.985 500.665 349.629C486.085 351.989 472.26 358.387 460.385 368.436H419.88C420.397 367.58 420.921 366.714 421.447 365.835ZM502.128 358.66C518.274 356.046 535.493 359.054 551.521 368.436H475.949C484.155 363.415 493.02 360.135 502.128 358.66Z" fill="white"/>
<defs>
<linearGradient id="paint0_linear_51_713" x1="952.813" y1="183.66" x2="94.7508" y2="883.068" gradientUnits="userSpaceOnUse">
<stop stop-color="#14F195"/>
<stop offset="1" stop-color="#9945FF"/>
</linearGradient>
</defs>
</svg>
