<svg width="512" height="512" viewBox="0 0 512 512" fill="none" xmlns="http://www.w3.org/2000/svg">
<path d="M148.088 103.576L254.554 58.7559L354.516 103.576L427.897 106.545V138.075V263.204L412.202 315.942L380.107 371.084L320.582 426.791L258.937 454.786L235.325 445.454L181.597 412.935L148.088 385.364L122.073 351.431L103.833 321.88L96.9053 297.703L82.2009 270.556V106.545L148.088 103.576Z" fill="url(#paint0_linear_51_561)"/>
<path d="M283.927 58.4912H304.025V68.541H324.125V79.1494H344.225V88.6406H380.515V117.673H344.224V108.182H324.125V97.5732H304.025V87.5234H283.927V78.0322H228.095V87.5234H207.995V97.5732H187.896V108.182H167.797V117.673H92.9824V280.7H102.474V309.732H111.965V329.832H121.456V338.765H130.947V357.748H140.439V367.798H149.931V377.847H159.422V386.78H168.913V396.83H190.129V406.88H198.504V416.93H216.929V426.979H235.353V437.028H247.077V443.17H264.943V437.028H276.668V426.979H295.093V416.93H313.517V406.88H321.892V396.83H343.107V386.78H352.599V377.847H362.091V367.798H371.582V357.748H381.073V338.765H390.564V329.832H400.056V309.732H409.547V280.7H419.038V117.673H380.516V97.5732H438.021V280.7H428.529V309.732H419.038V329.832H409.547V349.932H400.056V370.03H390.564V377.848H381.073V387.896H371.582V397.946H362.091V406.88H351.482V416.93H343.107V426.979H333.616V437.028H315.192V447.078H293.977V457.128H273.318V463.27H238.703V457.128H218.045V447.078H196.829V437.028H178.404V426.979H168.913V416.93H160.539V406.88H149.931V397.946H140.439V387.896H130.948V377.848H121.456V370.03H111.965V349.932H102.474V329.832H92.9824V309.732H83.4912V280.7H74V97.5732H131.506V88.6406H167.797V79.1494H187.896V68.541H207.995V58.4912H228.095V49H283.927V58.4912Z" fill="white"/>
<path d="M218.546 289.322C212.346 292.446 205.34 295.318 197.19 298.213L197.905 300.227L198.62 302.24C209.998 298.198 219.338 294.146 227.442 289.322H248.541C245.841 291.662 243.136 293.812 240.357 295.83L239.399 296.518C230.971 302.509 221.729 307.41 209.734 312.769L210.605 314.72L211.476 316.67C223.432 311.329 232.853 306.361 241.495 300.267C249.288 298.728 255.014 298.066 260.205 298.674C265.426 299.287 270.271 301.206 276.212 305.145L276.243 305.167L276.276 305.187L300.929 320.278L303.16 316.633L278.519 301.55C272.206 297.372 266.743 295.14 260.702 294.431C256.988 293.996 253.119 294.144 248.786 294.706C250.844 293.011 252.881 291.222 254.927 289.322H284.652C285.531 290.186 286.439 291.031 287.381 291.858C294.361 297.985 303.106 303.11 315.484 308.886L317.291 305.015C305.543 299.533 297.4 294.773 290.984 289.322H317.055C319.476 290.63 322.034 291.917 324.739 293.195L325.651 291.263L326.564 289.332C326.557 289.328 326.55 289.325 326.544 289.322H373.726L326.805 337.999H138.924L187.602 289.322H218.546ZM244.82 336.579H266.485V332.306H244.82V336.579ZM255.15 312.989C245.713 312.867 236.659 317.135 225.656 324.929L226.891 326.673L228.126 328.417C238.931 320.762 247.052 317.158 255.094 317.261C263.147 317.365 271.585 321.192 282.999 329.589L284.264 327.868L285.531 326.147C273.922 317.606 264.576 313.11 255.15 312.989ZM255.4 263.796C250.101 270.828 244.68 276.6 238.594 281.557C235.112 284.394 231.426 286.95 227.442 289.322H218.546C225.095 286.022 230.745 282.44 235.895 278.245C240.923 274.149 245.507 269.443 249.999 263.796H255.4ZM273.732 267.069L274.689 268.772C279.463 277.138 284.097 283.288 290.201 288.647C290.459 288.873 290.72 289.098 290.984 289.322H284.652C279.626 284.38 275.554 278.774 271.511 271.81C265.613 278.676 260.244 284.383 254.927 289.322H248.541C255.424 283.353 262.272 276.145 270.232 266.725L272.231 264.359L273.732 267.069ZM293.669 263.796C300.392 274.208 310.574 281.777 326.544 289.322H317.055C304.708 282.65 295.968 275.408 289.831 265.733C289.428 265.098 289.039 264.451 288.659 263.796H293.669ZM231.852 264.059C220.799 274.04 207.146 280.776 188.126 287.162L187.446 285.136L186.766 283.112C203.54 277.48 215.722 271.685 225.567 263.796H232.138C232.043 263.884 231.948 263.972 231.852 264.059ZM317.921 263.796C321.262 266.46 325.341 268.991 330.494 271.574L329.536 273.483L328.579 275.393C321.222 271.705 315.768 268.019 311.475 263.796H317.921ZM196.255 263.796C192.532 265.365 188.567 266.656 184.148 267.917L183.562 265.864L182.976 263.809C182.991 263.805 183.005 263.801 183.02 263.796H196.255ZM187.37 215.12C185.415 216.817 183.34 218.488 181.062 220.245L183.672 223.627C187.428 220.73 190.666 218.046 193.703 215.12H214.613C210.232 221.833 206.171 226.791 201.716 230.889C195.987 236.161 189.515 240.106 180.665 244.529L182.575 248.351C191.581 243.851 198.456 239.695 204.61 234.033C209.915 229.152 214.609 223.217 219.687 215.12H234.132L224.925 233.789C216.951 243.977 210.698 250.232 204.396 254.551C198.089 258.873 191.609 261.343 183.02 263.796H182.284L135.363 215.12H187.37ZM275.736 215.12C276.338 216.341 276.841 217.649 277.224 219.04C278.99 238.453 282.169 252.605 288.659 263.796H255.4C259.302 258.619 263.14 252.758 267.127 246.035L265.289 244.945L263.452 243.855C258.831 251.647 254.461 258.186 249.999 263.796H232.138C243.046 253.85 251.271 240.84 259.762 222.225L257.818 221.338L255.875 220.452C247.418 238.991 239.42 251.469 228.989 260.888C227.879 261.89 226.739 262.857 225.567 263.796H196.255C199.943 262.243 203.393 260.418 206.811 258.076C213.662 253.381 220.262 246.699 228.425 236.25L228.56 236.078L228.658 235.88L238.896 215.12H275.736ZM293.432 215.12C295.026 220.857 295.825 227.192 296.326 236.101L296.342 236.405L296.444 236.692C299.732 246.011 302.785 253.257 307.556 259.395C308.753 260.934 310.05 262.395 311.475 263.796H293.669C293.593 263.679 293.514 263.562 293.439 263.444C286.686 252.798 283.31 238.919 281.462 218.458L281.445 218.275L281.398 218.097L281.264 217.615C281.018 216.756 280.732 215.924 280.413 215.12H293.432ZM312.106 215.12C312.934 219.243 313.455 223.759 313.807 229.245L313.821 229.447L313.872 229.643C315.481 235.86 317.17 240.488 319.67 244.373C322.188 248.287 325.439 251.309 329.956 254.466L331.179 252.714L332.403 250.963C328.161 247.998 325.38 245.352 323.262 242.061C321.149 238.775 319.608 234.711 318.057 228.762C317.721 223.604 317.229 219.2 316.458 215.12H321.488L328.893 222.525C329.085 225.552 329.139 228.644 329.044 231.797L331.178 231.861L333.314 231.925C333.364 230.26 333.374 228.611 333.346 226.978L370.165 263.796H317.921C315.144 261.583 312.877 259.278 310.929 256.773C306.653 251.271 303.799 244.665 300.573 235.549C300.089 227.112 299.324 220.821 297.857 215.12H312.106ZM325.049 189.296C330.107 200.41 333.11 213.111 333.346 226.978L328.893 222.525C328.118 210.275 325.068 199.094 320.331 189.296H325.049ZM282.103 189.296C285.007 191.604 287.776 194.351 290.351 197.545L290.878 198.208L290.99 198.351L291.076 198.511C294.287 204.465 296.412 209.506 297.857 215.12H293.432C292.088 210.282 290.179 205.869 287.4 200.699C283.492 195.739 279.138 191.966 274.578 189.296H282.103ZM239.287 189.296C232.304 193.568 226.344 200.54 222.588 210.037L222.315 210.742L222.249 210.914L222.155 211.073C221.321 212.48 220.498 213.827 219.687 215.12H214.613C215.841 213.238 217.097 211.22 218.39 209.042C221.556 200.779 226.303 194.132 232.018 189.296H239.287ZM213.103 189.296C205.558 201.781 200.072 208.984 193.703 215.12H187.37C194.591 208.849 200.154 202.192 208.1 189.296H213.103ZM235.693 211.98C247.886 192.687 273.169 196.879 280.413 215.12H275.736C268.946 201.348 249.25 198.66 239.363 214.173L238.896 215.12H234.132L235.584 212.177L235.633 212.076L235.693 211.98ZM306.917 190.06L307.001 190.176L307.068 190.302C310.761 197.233 313.271 202.875 314.976 208.832C315.562 210.879 316.049 212.954 316.458 215.12H312.106C311.753 213.359 311.345 211.67 310.869 210.008C309.288 204.486 306.944 199.171 303.362 192.437C302.581 191.355 301.787 190.308 300.981 189.296H306.361L306.917 190.06ZM192.863 189.296C191.922 190.978 191 192.714 190.103 194.505L186.283 192.591C186.843 191.473 187.413 190.375 187.991 189.296H192.863ZM330.664 189.296H325.049C315.298 167.869 297.913 152.34 278.009 145.716C262.279 140.482 244.998 140.827 228.788 148.228C213.381 155.262 199.08 168.604 187.991 189.296H142.783L191.461 140.62H377.585L330.664 189.296ZM230.563 152.115C245.733 145.189 261.893 144.856 276.661 149.77C294.822 155.814 310.912 169.819 320.331 189.296H306.361L306.289 189.198C293.047 171.239 275.997 162.327 258.752 161.885C241.257 161.437 223.898 169.713 210.474 185.438L210.358 185.575L210.266 185.728C209.524 186.969 208.802 188.157 208.1 189.296H192.863C203.412 170.453 216.635 158.474 230.563 152.115ZM213.837 188.081C226.543 173.263 242.679 165.747 258.642 166.157C273.609 166.541 288.718 173.899 300.981 189.296H282.103C272.467 181.637 261.339 178.813 250.829 180.514C244.02 181.616 237.564 184.604 232.018 189.296H213.103C213.345 188.896 213.59 188.492 213.837 188.081ZM251.511 184.732C259.051 183.511 267.093 184.915 274.578 189.296H239.287C243.118 186.952 247.258 185.421 251.511 184.732Z" fill="#14F195"/>
<path d="M218.546 289.322C212.346 292.446 205.34 295.318 197.19 298.213L197.905 300.227L198.62 302.24C209.998 298.198 219.338 294.146 227.442 289.322H248.541C245.841 291.662 243.136 293.812 240.357 295.83L239.399 296.518C230.971 302.509 221.729 307.41 209.734 312.769L210.605 314.72L211.476 316.67C223.432 311.329 232.853 306.361 241.495 300.267C249.288 298.728 255.014 298.066 260.205 298.674C265.426 299.287 270.271 301.206 276.212 305.145L276.243 305.167L276.276 305.187L300.929 320.278L303.16 316.633L278.519 301.55C272.206 297.372 266.743 295.14 260.702 294.431C256.988 293.996 253.119 294.144 248.786 294.706C250.844 293.011 252.881 291.222 254.927 289.322H284.652C285.531 290.186 286.439 291.031 287.381 291.858C294.361 297.985 303.106 303.11 315.484 308.886L317.291 305.015C305.543 299.533 297.4 294.773 290.984 289.322H317.055C319.476 290.63 322.034 291.917 324.739 293.195L325.651 291.263L326.564 289.332C326.557 289.328 326.55 289.325 326.544 289.322H373.726L326.805 337.999H138.924L187.602 289.322H218.546ZM244.82 336.579H266.485V332.306H244.82V336.579ZM255.15 312.989C245.713 312.867 236.659 317.135 225.656 324.929L226.891 326.673L228.126 328.417C238.931 320.762 247.052 317.158 255.094 317.261C263.147 317.365 271.585 321.192 282.999 329.589L284.264 327.868L285.531 326.147C273.922 317.606 264.576 313.11 255.15 312.989ZM187.37 215.12C185.415 216.817 183.34 218.488 181.062 220.245L183.672 223.627C187.428 220.73 190.666 218.046 193.703 215.12H214.613C210.232 221.833 206.171 226.791 201.716 230.889C195.987 236.161 189.515 240.106 180.665 244.529L182.575 248.351C191.581 243.851 198.456 239.695 204.61 234.033C209.915 229.152 214.609 223.217 219.687 215.12H234.132L224.925 233.789C216.951 243.977 210.698 250.232 204.396 254.551C198.089 258.873 191.609 261.343 183.02 263.796H182.284L135.363 215.12H187.37ZM275.736 215.12C276.338 216.341 276.841 217.649 277.224 219.04C278.99 238.453 282.169 252.605 288.659 263.796H255.4C259.302 258.619 263.14 252.758 267.127 246.035L265.289 244.945L263.452 243.855C258.831 251.647 254.461 258.186 249.999 263.796H232.138C243.046 253.85 251.271 240.84 259.762 222.225L257.818 221.338L255.875 220.452C247.418 238.991 239.42 251.469 228.989 260.888C227.879 261.89 226.739 262.857 225.567 263.796H196.255C199.943 262.243 203.393 260.418 206.811 258.076C213.662 253.381 220.262 246.699 228.425 236.25L228.56 236.078L228.658 235.88L238.896 215.12H275.736ZM293.432 215.12C295.026 220.857 295.825 227.192 296.326 236.101L296.342 236.405L296.444 236.692C299.732 246.011 302.785 253.257 307.556 259.395C308.753 260.934 310.05 262.395 311.475 263.796H293.669C293.593 263.679 293.514 263.562 293.439 263.444C286.686 252.798 283.31 238.919 281.462 218.458L281.445 218.275L281.398 218.097L281.264 217.615C281.018 216.756 280.732 215.924 280.413 215.12H293.432ZM312.106 215.12C312.934 219.243 313.455 223.759 313.807 229.245L313.821 229.447L313.872 229.643C315.481 235.86 317.17 240.488 319.67 244.373C322.188 248.287 325.439 251.309 329.956 254.466L331.179 252.714L332.403 250.963C328.161 247.998 325.38 245.352 323.262 242.061C321.149 238.775 319.608 234.711 318.057 228.762C317.721 223.604 317.229 219.2 316.458 215.12H321.488L328.893 222.525C329.085 225.552 329.139 228.644 329.044 231.797L331.178 231.861L333.314 231.925C333.364 230.26 333.374 228.611 333.346 226.978L370.165 263.796H317.921C315.144 261.583 312.877 259.278 310.929 256.773C306.653 251.271 303.799 244.665 300.573 235.549C300.089 227.112 299.324 220.821 297.857 215.12H312.106ZM330.664 189.296H325.049C315.298 167.869 297.913 152.34 278.009 145.716C262.279 140.482 244.998 140.827 228.788 148.228C213.381 155.262 199.08 168.604 187.991 189.296H142.783L191.461 140.62H377.585L330.664 189.296ZM230.563 152.115C245.733 145.189 261.893 144.856 276.661 149.77C294.822 155.814 310.912 169.819 320.331 189.296H306.361L306.289 189.198C293.047 171.239 275.997 162.327 258.752 161.885C241.257 161.437 223.898 169.713 210.474 185.438L210.358 185.575L210.266 185.728C209.524 186.969 208.802 188.157 208.1 189.296H192.863C203.412 170.453 216.635 158.474 230.563 152.115ZM213.837 188.081C226.543 173.263 242.679 165.747 258.642 166.157C273.609 166.541 288.718 173.899 300.981 189.296H282.103C272.467 181.637 261.339 178.813 250.829 180.514C244.02 181.616 237.564 184.604 232.018 189.296H213.103C213.345 188.896 213.59 188.492 213.837 188.081ZM251.511 184.732C259.051 183.511 267.093 184.915 274.578 189.296H239.287C243.118 186.952 247.258 185.421 251.511 184.732Z" fill="white"/>
<defs>
<linearGradient id="paint0_linear_51_561" x1="461.971" y1="103.011" x2="61.2753" y2="429.619" gradientUnits="userSpaceOnUse">
<stop stop-color="#14F195"/>
<stop offset="1" stop-color="#9945FF"/>
</linearGradient>
</defs>
</svg>
