<svg width="1024" height="1024" viewBox="0 0 1024 1024" fill="none" xmlns="http://www.w3.org/2000/svg">
<g clip-path="url(#clip0_7_120)">
<path d="M512 938.667C413.156 913.778 331.548 857.059 267.179 768.512C202.809 679.964 170.638 581.66 170.667 473.6V213.333L512 85.3333L853.333 213.333V473.6C853.333 581.689 821.163 680.007 756.821 768.555C692.48 857.102 610.873 913.806 512 938.667Z" fill="url(#paint0_linear_7_120)"/>
<path d="M494.015 763.951C492.246 761.149 493.187 757.623 496.118 756.076L682.975 657.44C687.005 655.313 692.169 658.087 692.371 662.488L693.726 691.969C693.822 694.044 692.723 695.966 690.847 697.007L519.118 792.267C516.182 793.896 512.294 792.898 510.499 790.055L494.015 763.951Z" fill="white"/>
<path d="M330.503 657.633C330.708 653.233 335.871 650.461 339.899 652.588L534.675 755.405C537.606 756.952 538.547 760.477 536.778 763.279L520.259 789.438C518.477 792.26 514.63 793.268 511.697 791.682L331.959 694.502C330.048 693.469 328.925 691.528 329.023 689.429L330.503 657.633Z" fill="white"/>
<path d="M410.094 703.632H614.281L512.187 781.217L472.41 748.486L410.094 703.632Z" fill="white"/>
<path d="M363.356 703.632C349.592 703.632 337.813 699.182 328.019 690.281C318.226 681.38 313.32 670.668 313.304 658.143V430.699C313.304 418.19 318.209 407.485 328.019 398.584C337.829 389.684 349.608 385.226 363.356 385.211H388.382V339.722C388.382 308.259 400.587 281.443 424.996 259.275C449.404 237.107 478.91 226.015 513.513 226C548.116 225.985 577.63 237.077 602.056 259.275C626.481 281.474 638.677 308.289 638.644 339.722V385.211H663.67C677.435 385.211 689.222 389.669 699.032 398.584C708.842 407.5 713.739 418.205 713.723 430.699V658.143C713.723 670.653 708.826 681.365 699.032 690.281C689.239 699.197 677.451 703.647 663.67 703.632H363.356ZM363.356 658.143H663.67V430.699H363.356V658.143ZM513.513 589.91C527.278 589.91 539.065 585.46 548.875 576.559C558.685 567.659 563.582 556.946 563.565 544.421C563.549 531.897 558.652 521.192 548.875 512.306C539.098 503.421 527.311 498.963 513.513 498.933C499.715 498.902 487.936 503.36 478.176 512.306C468.416 521.252 463.511 531.957 463.461 544.421C463.411 556.885 468.316 567.598 478.176 576.559C488.036 585.52 499.815 589.971 513.513 589.91ZM438.435 385.211H588.592V339.722C588.592 320.768 581.292 304.658 566.694 291.39C552.095 278.123 534.368 271.489 513.513 271.489C492.658 271.489 474.931 278.123 460.333 291.39C445.734 304.658 438.435 320.768 438.435 339.722V385.211Z" fill="white"/>
<rect x="355.732" y="417.538" width="315.562" height="249.726" fill="white"/>
<g clip-path="url(#clip1_7_120)">
<path d="M642.641 622.416L599.059 663.194C598.112 664.08 596.966 664.786 595.692 665.269C594.418 665.752 593.044 666.001 591.656 666H385.059C384.074 666 383.109 665.749 382.285 665.277C381.461 664.805 380.812 664.134 380.419 663.345C380.026 662.556 379.906 661.685 380.073 660.837C380.24 659.989 380.688 659.203 381.36 658.574L424.974 617.796C425.919 616.913 427.062 616.208 428.331 615.725C429.601 615.243 430.971 614.993 432.356 614.99H638.941C639.926 614.99 640.891 615.242 641.716 615.713C642.539 616.185 643.187 616.857 643.582 617.645C643.974 618.434 644.094 619.306 643.927 620.153C643.76 621.001 643.313 621.787 642.641 622.416ZM599.059 540.301C598.112 539.415 596.966 538.709 595.692 538.226C594.418 537.743 593.044 537.495 591.656 537.495H385.059C384.074 537.495 383.109 537.747 382.285 538.218C381.461 538.69 380.812 539.361 380.419 540.15C380.026 540.939 379.906 541.811 380.073 542.658C380.24 543.506 380.688 544.292 381.36 544.921L424.974 585.699C425.919 586.583 427.062 587.287 428.331 587.77C429.601 588.253 430.971 588.503 432.356 588.505H638.941C639.926 588.505 640.891 588.253 641.716 587.782C642.539 587.31 643.187 586.639 643.582 585.85C643.974 585.061 644.094 584.189 643.927 583.342C643.76 582.494 643.313 581.708 642.641 581.079L599.059 540.301ZM385.059 511.01H591.656C593.044 511.01 594.418 510.761 595.692 510.279C596.966 509.796 598.112 509.09 599.059 508.204L642.641 467.426C643.313 466.797 643.76 466.01 643.927 465.163C644.094 464.315 643.974 463.444 643.582 462.655C643.187 461.866 642.539 461.195 641.716 460.723C640.891 460.251 639.926 460 638.941 460H432.356C430.971 460.002 429.601 460.252 428.331 460.735C427.062 461.217 425.919 461.922 424.974 462.806L381.372 503.584C380.7 504.212 380.253 504.998 380.085 505.844C379.917 506.691 380.037 507.562 380.428 508.35C380.82 509.139 381.467 509.81 382.289 510.282C383.112 510.755 384.075 511.007 385.059 511.01Z" fill="url(#paint1_linear_7_120)"/>
</g>
</g>
<defs>
<linearGradient id="paint0_linear_7_120" x1="763" y1="184" x2="282" y2="788" gradientUnits="userSpaceOnUse">
<stop stop-color="#14F195"/>
<stop offset="1" stop-color="#9945FF"/>
</linearGradient>
<linearGradient id="paint1_linear_7_120" x1="402.285" y1="670.91" x2="586.578" y2="432.787" gradientUnits="userSpaceOnUse">
<stop offset="0.08" stop-color="#9945FF"/>
<stop offset="0.3" stop-color="#8752F3"/>
<stop offset="0.5" stop-color="#5497D5"/>
<stop offset="0.6" stop-color="#43B4CA"/>
<stop offset="0.72" stop-color="#28E0B9"/>
<stop offset="0.97" stop-color="#19FB9B"/>
</linearGradient>
<clipPath id="clip0_7_120">
<rect width="1024" height="1024" fill="white"/>
</clipPath>
<clipPath id="clip1_7_120">
<rect width="264" height="206" fill="white" transform="translate(380 460)"/>
</clipPath>
</defs>
</svg>
