<svg width="1024" height="1024" viewBox="0 0 1024 1024" fill="none" xmlns="http://www.w3.org/2000/svg">
<path d="M361.384 471.456C364.029 471.456 366.013 470.88 367.336 469.728C368.701 468.576 369.384 467.104 369.384 465.312C369.384 463.776 368.851 462.517 367.784 461.536C366.76 460.512 365.181 459.701 363.048 459.104L358.184 457.632C356.221 456.992 354.515 456.224 353.064 455.328C351.613 454.432 350.483 453.301 349.672 451.936C348.904 450.571 348.52 448.928 348.52 447.008C348.52 443.68 349.757 441.056 352.232 439.136C354.707 437.173 358.056 436.192 362.28 436.192C364.627 436.192 366.717 436.448 368.552 436.96C370.387 437.429 371.837 438.069 372.904 438.88C373.971 439.691 374.504 440.587 374.504 441.568C374.504 442.251 374.312 442.869 373.928 443.424C373.587 443.936 373.16 444.363 372.648 444.704C371.624 443.893 370.216 443.189 368.424 442.592C366.675 441.995 364.776 441.696 362.728 441.696C360.381 441.696 358.547 442.187 357.224 443.168C355.901 444.107 355.24 445.387 355.24 447.008C355.24 448.331 355.709 449.397 356.648 450.208C357.587 451.019 359.08 451.723 361.128 452.32L364.904 453.472C368.403 454.496 371.155 455.925 373.16 457.76C375.165 459.595 376.168 462.133 376.168 465.376C376.168 468.789 374.888 471.563 372.328 473.696C369.768 475.829 366.141 476.896 361.448 476.896C358.845 476.896 356.541 476.597 354.536 476C352.573 475.445 351.037 474.72 349.928 473.824C348.819 472.885 348.264 471.904 348.264 470.88C348.264 470.027 348.52 469.323 349.032 468.768C349.544 468.171 350.12 467.723 350.76 467.424C351.784 468.363 353.192 469.28 354.984 470.176C356.776 471.029 358.909 471.456 361.384 471.456ZM412.212 461.024C412.212 464.267 411.593 467.083 410.356 469.472C409.118 471.819 407.369 473.653 405.108 474.976C402.846 476.256 400.201 476.896 397.172 476.896C394.1 476.896 391.433 476.256 389.172 474.976C386.91 473.653 385.161 471.819 383.924 469.472C382.686 467.083 382.068 464.267 382.068 461.024C382.068 457.781 382.686 454.987 383.924 452.64C385.204 450.293 386.974 448.48 389.236 447.2C391.497 445.877 394.142 445.216 397.172 445.216C400.158 445.216 402.782 445.877 405.044 447.2C407.305 448.48 409.054 450.293 410.292 452.64C411.572 454.987 412.212 457.781 412.212 461.024ZM397.172 450.464C394.569 450.464 392.5 451.403 390.964 453.28C389.428 455.157 388.66 457.739 388.66 461.024C388.66 464.395 389.406 467.019 390.9 468.896C392.393 470.731 394.484 471.648 397.172 471.648C399.817 471.648 401.865 470.709 403.316 468.832C404.809 466.955 405.556 464.352 405.556 461.024C405.556 457.739 404.809 455.157 403.316 453.28C401.822 451.403 399.774 450.464 397.172 450.464ZM419.991 459.104L426.455 459.68V475.872C426.199 475.957 425.793 476.064 425.239 476.192C424.727 476.32 424.15 476.384 423.51 476.384C422.316 476.384 421.42 476.171 420.823 475.744C420.268 475.275 419.991 474.485 419.991 473.376V459.104ZM426.455 462.88L419.991 462.368V434.464C420.247 434.379 420.652 434.293 421.207 434.208C421.761 434.08 422.337 434.016 422.935 434.016C424.172 434.016 425.068 434.229 425.623 434.656C426.177 435.083 426.455 435.851 426.455 436.96V462.88ZM447.055 476.896C442.916 476.896 439.674 476.107 437.327 474.528C435.023 472.907 433.871 470.539 433.871 467.424C433.871 464.608 434.788 462.453 436.623 460.96C438.5 459.467 441.103 458.549 444.431 458.208L453.391 457.312V455.84C453.391 453.92 452.772 452.533 451.535 451.68C450.298 450.784 448.612 450.336 446.479 450.336C444.772 450.336 443.108 450.571 441.487 451.04C439.908 451.509 438.5 452.064 437.263 452.704C436.879 452.363 436.538 451.957 436.239 451.488C435.94 450.976 435.791 450.464 435.791 449.952C435.791 448.587 436.516 447.584 437.967 446.944C439.119 446.389 440.463 445.963 441.999 445.664C443.578 445.365 445.199 445.216 446.863 445.216C450.788 445.216 453.903 446.069 456.207 447.776C458.554 449.483 459.727 452.192 459.727 455.904V470.88C459.727 471.861 459.514 472.629 459.087 473.184C458.66 473.696 458.084 474.187 457.359 474.656C456.25 475.253 454.799 475.765 453.007 476.192C451.258 476.661 449.274 476.896 447.055 476.896ZM447.055 471.84C448.591 471.84 449.914 471.691 451.023 471.392C452.132 471.051 452.922 470.731 453.391 470.432V462.112L446.223 462.816C444.26 462.987 442.767 463.435 441.743 464.16C440.762 464.885 440.271 465.931 440.271 467.296C440.271 468.704 440.826 469.813 441.935 470.624C443.087 471.435 444.794 471.84 447.055 471.84ZM495.232 456.352V462.752H488.768V456.608C488.768 454.475 488.149 452.917 486.912 451.936C485.717 450.955 484.096 450.464 482.048 450.464C480.555 450.464 479.211 450.656 478.016 451.04C476.821 451.381 475.797 451.808 474.944 452.32V462.752H468.48V452.192C468.48 451.211 468.672 450.421 469.056 449.824C469.44 449.227 470.08 448.629 470.976 448.032C472.171 447.307 473.728 446.667 475.648 446.112C477.568 445.515 479.723 445.216 482.112 445.216C486.208 445.216 489.408 446.155 491.712 448.032C494.059 449.867 495.232 452.64 495.232 456.352ZM468.48 459.424H474.944V475.872C474.645 475.957 474.219 476.064 473.664 476.192C473.152 476.32 472.597 476.384 472 476.384C470.805 476.384 469.909 476.171 469.312 475.744C468.757 475.275 468.48 474.485 468.48 473.376V459.424ZM488.768 459.424H495.232V475.872C494.976 475.957 494.571 476.064 494.016 476.192C493.461 476.32 492.885 476.384 492.288 476.384C491.051 476.384 490.155 476.171 489.6 475.744C489.045 475.275 488.768 474.485 488.768 473.376V459.424ZM515.368 476.896C511.229 476.896 507.986 476.107 505.64 474.528C503.336 472.907 502.184 470.539 502.184 467.424C502.184 464.608 503.101 462.453 504.936 460.96C506.813 459.467 509.416 458.549 512.744 458.208L521.704 457.312V455.84C521.704 453.92 521.085 452.533 519.848 451.68C518.61 450.784 516.925 450.336 514.792 450.336C513.085 450.336 511.421 450.571 509.8 451.04C508.221 451.509 506.813 452.064 505.576 452.704C505.192 452.363 504.85 451.957 504.552 451.488C504.253 450.976 504.104 450.464 504.104 449.952C504.104 448.587 504.829 447.584 506.28 446.944C507.432 446.389 508.776 445.963 510.312 445.664C511.89 445.365 513.512 445.216 515.176 445.216C519.101 445.216 522.216 446.069 524.52 447.776C526.866 449.483 528.04 452.192 528.04 455.904V470.88C528.04 471.861 527.826 472.629 527.4 473.184C526.973 473.696 526.397 474.187 525.672 474.656C524.562 475.253 523.112 475.765 521.32 476.192C519.57 476.661 517.586 476.896 515.368 476.896ZM515.368 471.84C516.904 471.84 518.226 471.691 519.336 471.392C520.445 471.051 521.234 470.731 521.704 470.432V462.112L514.536 462.816C512.573 462.987 511.08 463.435 510.056 464.16C509.074 464.885 508.584 465.931 508.584 467.296C508.584 468.704 509.138 469.813 510.248 470.624C511.4 471.435 513.106 471.84 515.368 471.84ZM564.517 442.4H564.261C563.664 444.064 562.981 446.005 562.213 448.224C561.445 450.443 560.634 452.747 559.781 455.136C558.97 457.483 558.202 459.723 557.477 461.856L556.901 464.288C556.645 465.099 556.346 466.037 556.005 467.104C555.664 468.171 555.301 469.28 554.917 470.432C554.576 471.541 554.234 472.608 553.893 473.632C553.552 474.613 553.274 475.424 553.061 476.064C552.72 476.235 552.336 476.363 551.909 476.448C551.525 476.533 551.034 476.576 550.437 476.576C549.413 476.576 548.56 476.341 547.877 475.872C547.237 475.403 546.917 474.72 546.917 473.824C546.917 473.355 546.981 472.907 547.109 472.48C547.28 472.011 547.45 471.499 547.621 470.944C548.09 469.536 548.688 467.787 549.413 465.696C550.138 463.563 550.949 461.259 551.845 458.784C552.741 456.309 553.658 453.792 554.597 451.232C555.536 448.672 556.432 446.24 557.285 443.936C558.181 441.589 558.992 439.52 559.717 437.728C560.144 437.515 560.784 437.301 561.637 437.088C562.533 436.832 563.429 436.704 564.325 436.704C565.477 436.704 566.544 436.875 567.525 437.216C568.506 437.557 569.146 438.133 569.445 438.944C570.384 441.333 571.408 444.085 572.517 447.2C573.626 450.272 574.736 453.472 575.845 456.8C576.997 460.128 578.085 463.371 579.109 466.528C580.133 469.685 581.05 472.544 581.861 475.104C581.52 475.531 581.029 475.872 580.389 476.128C579.792 476.384 579.109 476.512 578.341 476.512C577.189 476.512 576.357 476.299 575.845 475.872C575.333 475.445 574.928 474.72 574.629 473.696L571.557 464.288L570.853 461.408C570.085 459.019 569.296 456.629 568.485 454.24C567.717 451.851 566.97 449.632 566.245 447.584C565.562 445.536 564.986 443.808 564.517 442.4ZM553.829 466.144L556.197 460.832H573.157L574.245 466.144H553.829ZM587.605 464.8V459.36H594.069V464.608C594.069 467.125 594.709 468.939 595.989 470.048C597.312 471.115 599.146 471.648 601.493 471.648C603.029 471.648 604.33 471.499 605.397 471.2C606.464 470.859 607.296 470.517 607.893 470.176V459.36H614.357V470.432C614.357 471.371 614.208 472.139 613.909 472.736C613.653 473.333 613.077 473.888 612.181 474.4C611.114 475.04 609.664 475.616 607.829 476.128C605.994 476.64 603.861 476.896 601.429 476.896C598.57 476.896 596.096 476.469 594.005 475.616C591.914 474.763 590.314 473.44 589.205 471.648C588.138 469.856 587.605 467.573 587.605 464.8ZM614.357 462.56H607.893V446.176C608.149 446.091 608.554 446.005 609.109 445.92C609.664 445.792 610.24 445.728 610.837 445.728C612.074 445.728 612.97 445.963 613.525 446.432C614.08 446.859 614.357 447.627 614.357 448.736V462.56ZM594.069 462.56H587.605V446.176C587.861 446.091 588.266 446.005 588.821 445.92C589.376 445.792 589.973 445.728 590.613 445.728C591.765 445.728 592.618 445.963 593.173 446.432C593.77 446.859 594.069 447.627 594.069 448.736V462.56ZM623.357 459.104H629.821V467.296C629.821 468.875 630.269 469.984 631.165 470.624C632.061 471.264 633.319 471.584 634.941 471.584C635.666 471.584 636.434 471.477 637.245 471.264C638.098 471.051 638.823 470.795 639.421 470.496C639.719 470.795 639.975 471.157 640.189 471.584C640.402 472.011 640.509 472.523 640.509 473.12C640.509 474.229 639.933 475.125 638.781 475.808C637.671 476.491 636.007 476.832 633.789 476.832C630.631 476.832 628.093 476.128 626.173 474.72C624.295 473.312 623.357 470.987 623.357 467.744V459.104ZM627.005 451.936V446.752H639.805C639.933 446.965 640.082 447.307 640.253 447.776C640.423 448.245 640.509 448.736 640.509 449.248C640.509 450.144 640.295 450.827 639.869 451.296C639.442 451.723 638.866 451.936 638.141 451.936H627.005ZM629.821 460.96H623.357V437.792C623.613 437.707 624.018 437.621 624.573 437.536C625.127 437.408 625.725 437.344 626.365 437.344C627.517 437.344 628.37 437.579 628.925 438.048C629.522 438.475 629.821 439.221 629.821 440.288V460.96ZM674.296 463.2H667.832V457.312C667.832 454.965 667.171 453.237 665.848 452.128C664.568 451.019 662.925 450.464 660.92 450.464C659.341 450.464 657.891 450.763 656.568 451.36C655.245 451.957 654.115 452.661 653.176 453.472L652.472 448.224C653.453 447.541 654.755 446.88 656.376 446.24C657.997 445.557 659.832 445.216 661.88 445.216C665.592 445.216 668.579 446.197 670.84 448.16C673.144 450.123 674.296 453.088 674.296 457.056V463.2ZM647.608 459.104H654.072V475.872C653.773 475.957 653.347 476.064 652.792 476.192C652.28 476.32 651.725 476.384 651.128 476.384C649.933 476.384 649.037 476.171 648.44 475.744C647.885 475.275 647.608 474.485 647.608 473.376V459.104ZM667.832 459.168L674.296 459.232V475.872C674.04 475.957 673.635 476.064 673.08 476.192C672.525 476.32 671.949 476.384 671.352 476.384C670.157 476.384 669.261 476.171 668.664 475.744C668.109 475.275 667.832 474.485 667.832 473.376V459.168ZM654.072 462.368H647.608V434.464C647.864 434.379 648.269 434.293 648.824 434.208C649.379 434.08 649.976 434.016 650.616 434.016C651.768 434.016 652.621 434.229 653.176 434.656C653.773 435.083 654.072 435.851 654.072 436.96V462.368Z" fill="url(#paint0_linear_7_76)"/>
<path d="M511.467 834.667C422.429 812.247 348.919 761.156 290.936 681.394C232.953 601.633 203.974 513.082 204 415.743V181.3L511.467 66L818.933 181.3V415.743C818.933 513.108 789.955 601.671 731.997 681.433C674.04 761.195 600.529 812.273 511.467 834.667Z" fill="url(#paint1_linear_7_76)"/>
<path d="M495.274 677.282C493.681 674.758 494.529 671.582 497.168 670.189L665.478 581.343C669.108 579.427 673.759 581.926 673.942 585.89L675.163 612.445C675.249 614.315 674.26 616.046 672.569 616.984L517.887 702.789C515.242 704.256 511.74 703.356 510.123 700.795L495.274 677.282Z" fill="white"/>
<path d="M347.978 581.517C348.163 577.554 352.813 575.057 356.442 576.972L531.892 669.588C534.532 670.981 535.38 674.157 533.786 676.681L518.906 700.245C517.301 702.786 513.836 703.695 511.193 702.266L349.289 614.727C347.568 613.797 346.556 612.049 346.644 610.158L347.978 581.517Z" fill="white"/>
<path d="M419.671 622.952H603.599L511.635 692.839L475.805 663.355L419.671 622.952Z" fill="white"/>
<path d="M377.571 622.952C365.172 622.952 354.562 618.943 345.74 610.926C336.918 602.908 332.5 593.258 332.485 581.976V377.099C332.485 365.831 336.903 356.188 345.74 348.171C354.577 340.153 365.187 336.137 377.571 336.124H400.114V295.148C400.114 266.807 411.108 242.652 433.095 222.683C455.082 202.715 481.66 192.724 512.83 192.71C543.999 192.696 570.585 202.687 592.587 222.683C614.589 242.679 625.575 266.834 625.545 295.148V336.124H648.088C660.487 336.124 671.105 340.139 679.942 348.171C688.779 356.202 693.19 365.845 693.175 377.099V581.976C693.175 593.245 688.764 602.894 679.942 610.926C671.12 618.957 660.502 622.965 648.088 622.952H377.571ZM377.571 581.976H648.088V377.099H377.571V581.976ZM512.83 520.513C525.228 520.513 535.846 516.505 544.683 508.487C553.52 500.469 557.931 490.82 557.916 479.538C557.901 468.256 553.49 458.613 544.683 450.609C535.876 442.605 525.259 438.59 512.83 438.562C500.401 438.535 489.791 442.551 480.999 450.609C472.207 458.668 467.789 468.311 467.744 479.538C467.698 490.765 472.117 500.415 480.999 508.487C489.881 516.559 500.491 520.568 512.83 520.513ZM445.2 336.124H580.459V295.148C580.459 278.075 573.884 263.563 560.734 251.612C547.584 239.661 531.616 233.685 512.83 233.685C494.044 233.685 478.076 239.661 464.926 251.612C451.775 263.563 445.2 278.075 445.2 295.148V336.124Z" fill="white"/>
<rect x="370.704" y="365.243" width="284.252" height="224.949" fill="white"/>
<path d="M630.764 550.648L591.145 587.467C590.284 588.267 589.242 588.904 588.084 589.34C586.926 589.776 585.676 590.001 584.414 590H396.6C395.703 590 394.827 589.773 394.077 589.347C393.328 588.921 392.738 588.315 392.381 587.603C392.024 586.891 391.915 586.104 392.067 585.338C392.219 584.573 392.625 583.863 393.237 583.295L432.886 546.476C433.745 545.678 434.783 545.042 435.938 544.606C437.092 544.17 438.337 543.945 439.596 543.943H627.401C628.297 543.943 629.173 544.17 629.923 544.596C630.672 545.021 631.261 545.628 631.62 546.34C631.976 547.052 632.086 547.839 631.934 548.604C631.781 549.37 631.375 550.08 630.764 550.648ZM591.145 476.504C590.284 475.705 589.242 475.067 588.084 474.631C586.926 474.196 585.676 473.971 584.414 473.972H396.6C395.703 473.972 394.827 474.198 394.077 474.624C393.328 475.05 392.738 475.656 392.381 476.368C392.024 477.081 391.915 477.868 392.067 478.633C392.219 479.398 392.625 480.108 393.237 480.676L432.886 517.496C433.745 518.293 434.783 518.929 435.938 519.365C437.092 519.801 438.337 520.027 439.596 520.028H627.401C628.297 520.028 629.173 519.802 629.923 519.376C630.672 518.95 631.261 518.344 631.62 517.632C631.976 516.919 632.086 516.132 631.934 515.367C631.781 514.602 631.375 513.892 630.764 513.324L591.145 476.504ZM396.6 450.057H584.414C585.676 450.058 586.926 449.833 588.084 449.397C589.242 448.961 590.284 448.324 591.145 447.524L630.764 410.705C631.375 410.137 631.781 409.427 631.934 408.662C632.086 407.896 631.976 407.109 631.62 406.397C631.261 405.685 630.672 405.079 629.923 404.653C629.173 404.227 628.297 404 627.401 404H439.596C438.337 404.002 437.092 404.228 435.938 404.663C434.783 405.099 433.745 405.735 432.886 406.533L393.247 443.352C392.636 443.919 392.23 444.629 392.077 445.393C391.925 446.158 392.033 446.944 392.389 447.656C392.745 448.368 393.333 448.974 394.081 449.401C394.829 449.827 395.704 450.055 396.6 450.057Z" fill="url(#paint2_linear_7_76)"/>
<path d="M209.768 941.912C215.059 941.912 219.027 940.76 221.672 938.456C224.403 936.152 225.768 933.208 225.768 929.624C225.768 926.552 224.701 924.035 222.568 922.072C220.52 920.024 217.363 918.403 213.096 917.208L203.368 914.264C199.443 912.984 196.029 911.448 193.128 909.656C190.227 907.864 187.965 905.603 186.344 902.872C184.808 900.141 184.04 896.856 184.04 893.016C184.04 886.36 186.515 881.112 191.464 877.272C196.413 873.347 203.112 871.384 211.56 871.384C216.253 871.384 220.435 871.896 224.104 872.92C227.773 873.859 230.675 875.139 232.808 876.76C234.941 878.381 236.008 880.173 236.008 882.136C236.008 883.501 235.624 884.739 234.856 885.848C234.173 886.872 233.32 887.725 232.296 888.408C230.248 886.787 227.432 885.379 223.848 884.184C220.349 882.989 216.552 882.392 212.456 882.392C207.763 882.392 204.093 883.373 201.448 885.336C198.803 887.213 197.48 889.773 197.48 893.016C197.48 895.661 198.419 897.795 200.296 899.416C202.173 901.037 205.16 902.445 209.256 903.64L216.808 905.944C223.805 907.992 229.309 910.851 233.32 914.52C237.331 918.189 239.336 923.267 239.336 929.752C239.336 936.579 236.776 942.125 231.656 946.392C226.536 950.659 219.283 952.792 209.896 952.792C204.691 952.792 200.083 952.195 196.072 951C192.147 949.891 189.075 948.44 186.856 946.648C184.637 944.771 183.528 942.808 183.528 940.76C183.528 939.053 184.04 937.645 185.064 936.536C186.088 935.341 187.24 934.445 188.52 933.848C190.568 935.725 193.384 937.56 196.968 939.352C200.552 941.059 204.819 941.912 209.768 941.912ZM311.423 921.048C311.423 927.533 310.186 933.165 307.711 937.944C305.236 942.637 301.738 946.307 297.215 948.952C292.692 951.512 287.402 952.792 281.343 952.792C275.199 952.792 269.866 951.512 265.343 948.952C260.82 946.307 257.322 942.637 254.847 937.944C252.372 933.165 251.135 927.533 251.135 921.048C251.135 914.563 252.372 908.973 254.847 904.28C257.407 899.587 260.948 895.96 265.471 893.4C269.994 890.755 275.284 889.432 281.343 889.432C287.316 889.432 292.564 890.755 297.087 893.4C301.61 895.96 305.108 899.587 307.583 904.28C310.143 908.973 311.423 914.563 311.423 921.048ZM281.343 899.928C276.138 899.928 271.999 901.805 268.927 905.56C265.855 909.315 264.319 914.477 264.319 921.048C264.319 927.789 265.812 933.037 268.799 936.792C271.786 940.461 275.967 942.296 281.343 942.296C286.634 942.296 290.73 940.419 293.631 936.664C296.618 932.909 298.111 927.704 298.111 921.048C298.111 914.477 296.618 909.315 293.631 905.56C290.644 901.805 286.548 899.928 281.343 899.928ZM326.981 917.208L339.909 918.36V950.744C339.397 950.915 338.586 951.128 337.477 951.384C336.453 951.64 335.301 951.768 334.021 951.768C331.632 951.768 329.84 951.341 328.645 950.488C327.536 949.549 326.981 947.971 326.981 945.752V917.208ZM339.909 924.76L326.981 923.736V867.928C327.493 867.757 328.304 867.587 329.413 867.416C330.522 867.16 331.674 867.032 332.869 867.032C335.344 867.032 337.136 867.459 338.245 868.312C339.354 869.165 339.909 870.701 339.909 872.92V924.76ZM381.11 952.792C372.833 952.792 366.347 951.213 361.654 948.056C357.046 944.813 354.742 940.077 354.742 933.848C354.742 928.216 356.577 923.907 360.246 920.92C364.001 917.933 369.206 916.099 375.862 915.416L393.782 913.624V910.68C393.782 906.84 392.545 904.067 390.07 902.36C387.595 900.568 384.225 899.672 379.958 899.672C376.545 899.672 373.217 900.141 369.974 901.08C366.817 902.019 364.001 903.128 361.526 904.408C360.758 903.725 360.075 902.915 359.478 901.976C358.881 900.952 358.582 899.928 358.582 898.904C358.582 896.173 360.033 894.168 362.934 892.888C365.238 891.779 367.926 890.925 370.998 890.328C374.155 889.731 377.398 889.432 380.726 889.432C388.577 889.432 394.806 891.139 399.414 894.552C404.107 897.965 406.454 903.384 406.454 910.808V940.76C406.454 942.723 406.027 944.259 405.174 945.368C404.321 946.392 403.169 947.373 401.718 948.312C399.499 949.507 396.598 950.531 393.014 951.384C389.515 952.323 385.547 952.792 381.11 952.792ZM381.11 942.68C384.182 942.68 386.827 942.381 389.046 941.784C391.265 941.101 392.843 940.461 393.782 939.864V923.224L379.446 924.632C375.521 924.973 372.534 925.869 370.486 927.32C368.523 928.771 367.542 930.861 367.542 933.592C367.542 936.408 368.651 938.627 370.87 940.248C373.174 941.869 376.587 942.68 381.11 942.68ZM477.464 911.704V924.504H464.536V912.216C464.536 907.949 463.299 904.835 460.824 902.872C458.435 900.909 455.192 899.928 451.096 899.928C448.109 899.928 445.421 900.312 443.032 901.08C440.643 901.763 438.595 902.616 436.888 903.64V924.504H423.96V903.384C423.96 901.421 424.344 899.843 425.112 898.648C425.88 897.453 427.16 896.259 428.952 895.064C431.341 893.613 434.456 892.333 438.296 891.224C442.136 890.029 446.445 889.432 451.224 889.432C459.416 889.432 465.816 891.309 470.424 895.064C475.117 898.733 477.464 904.28 477.464 911.704ZM423.96 917.848H436.888V950.744C436.291 950.915 435.437 951.128 434.328 951.384C433.304 951.64 432.195 951.768 431 951.768C428.611 951.768 426.819 951.341 425.624 950.488C424.515 949.549 423.96 947.971 423.96 945.752V917.848ZM464.536 917.848H477.464V950.744C476.952 950.915 476.141 951.128 475.032 951.384C473.923 951.64 472.771 951.768 471.576 951.768C469.101 951.768 467.309 951.341 466.2 950.488C465.091 949.549 464.536 947.971 464.536 945.752V917.848ZM517.735 952.792C509.458 952.792 502.972 951.213 498.279 948.056C493.671 944.813 491.367 940.077 491.367 933.848C491.367 928.216 493.202 923.907 496.871 920.92C500.626 917.933 505.831 916.099 512.487 915.416L530.407 913.624V910.68C530.407 906.84 529.17 904.067 526.695 902.36C524.22 900.568 520.85 899.672 516.583 899.672C513.17 899.672 509.842 900.141 506.599 901.08C503.442 902.019 500.626 903.128 498.151 904.408C497.383 903.725 496.7 902.915 496.103 901.976C495.506 900.952 495.207 899.928 495.207 898.904C495.207 896.173 496.658 894.168 499.559 892.888C501.863 891.779 504.551 890.925 507.623 890.328C510.78 889.731 514.023 889.432 517.351 889.432C525.202 889.432 531.431 891.139 536.039 894.552C540.732 897.965 543.079 903.384 543.079 910.808V940.76C543.079 942.723 542.652 944.259 541.799 945.368C540.946 946.392 539.794 947.373 538.343 948.312C536.124 949.507 533.223 950.531 529.639 951.384C526.14 952.323 522.172 952.792 517.735 952.792ZM517.735 942.68C520.807 942.68 523.452 942.381 525.671 941.784C527.89 941.101 529.468 940.461 530.407 939.864V923.224L516.071 924.632C512.146 924.973 509.159 925.869 507.111 927.32C505.148 928.771 504.167 930.861 504.167 933.592C504.167 936.408 505.276 938.627 507.495 940.248C509.799 941.869 513.212 942.68 517.735 942.68ZM616.034 883.8H615.522C614.327 887.128 612.962 891.011 611.426 895.448C609.89 899.885 608.269 904.493 606.562 909.272C604.941 913.965 603.405 918.445 601.954 922.712L600.802 927.576C600.29 929.197 599.693 931.075 599.01 933.208C598.327 935.341 597.602 937.56 596.834 939.864C596.151 942.083 595.469 944.216 594.786 946.264C594.103 948.227 593.549 949.848 593.122 951.128C592.439 951.469 591.671 951.725 590.818 951.896C590.05 952.067 589.069 952.152 587.874 952.152C585.826 952.152 584.119 951.683 582.754 950.744C581.474 949.805 580.834 948.44 580.834 946.648C580.834 945.709 580.962 944.813 581.218 943.96C581.559 943.021 581.901 941.997 582.242 940.888C583.181 938.072 584.375 934.573 585.826 930.392C587.277 926.125 588.898 921.517 590.69 916.568C592.482 911.619 594.317 906.584 596.194 901.464C598.071 896.344 599.863 891.48 601.57 886.872C603.362 882.179 604.983 878.04 606.434 874.456C607.287 874.029 608.567 873.603 610.274 873.176C612.066 872.664 613.858 872.408 615.65 872.408C617.954 872.408 620.087 872.749 622.05 873.432C624.013 874.115 625.293 875.267 625.89 876.888C627.767 881.667 629.815 887.171 632.034 893.4C634.253 899.544 636.471 905.944 638.69 912.6C640.994 919.256 643.17 925.741 645.218 932.056C647.266 938.371 649.101 944.088 650.722 949.208C650.039 950.061 649.058 950.744 647.778 951.256C646.583 951.768 645.218 952.024 643.682 952.024C641.378 952.024 639.714 951.597 638.69 950.744C637.666 949.891 636.855 948.44 636.258 946.392L630.114 927.576L628.706 921.816C627.17 917.037 625.591 912.259 623.97 907.48C622.434 902.701 620.941 898.264 619.49 894.168C618.125 890.072 616.973 886.616 616.034 883.8ZM594.658 931.288L599.394 920.664H633.314L635.49 931.288H594.658ZM662.21 928.6V917.72H675.138V928.216C675.138 933.251 676.418 936.877 678.978 939.096C681.623 941.229 685.293 942.296 689.986 942.296C693.058 942.296 695.661 941.997 697.794 941.4C699.927 940.717 701.591 940.035 702.786 939.352V917.72H715.714V939.864C715.714 941.741 715.415 943.277 714.818 944.472C714.306 945.667 713.154 946.776 711.362 947.8C709.229 949.08 706.327 950.232 702.658 951.256C698.989 952.28 694.722 952.792 689.858 952.792C684.141 952.792 679.191 951.939 675.01 950.232C670.829 948.525 667.629 945.88 665.41 942.296C663.277 938.712 662.21 934.147 662.21 928.6ZM715.714 924.12H702.786V891.352C703.298 891.181 704.109 891.011 705.218 890.84C706.327 890.584 707.479 890.456 708.674 890.456C711.149 890.456 712.941 890.925 714.05 891.864C715.159 892.717 715.714 894.253 715.714 896.472V924.12ZM675.138 924.12H662.21V891.352C662.722 891.181 663.533 891.011 664.642 890.84C665.751 890.584 666.946 890.456 668.226 890.456C670.53 890.456 672.237 890.925 673.346 891.864C674.541 892.717 675.138 894.253 675.138 896.472V924.12ZM733.713 917.208H746.641V933.592C746.641 936.749 747.537 938.968 749.329 940.248C751.121 941.528 753.638 942.168 756.881 942.168C758.332 942.168 759.868 941.955 761.489 941.528C763.196 941.101 764.646 940.589 765.841 939.992C766.438 940.589 766.95 941.315 767.377 942.168C767.804 943.021 768.017 944.045 768.017 945.24C768.017 947.459 766.865 949.251 764.561 950.616C762.342 951.981 759.014 952.664 754.577 952.664C748.262 952.664 743.185 951.256 739.345 948.44C735.59 945.624 733.713 940.973 733.713 934.488V917.208ZM741.009 902.872V892.504H766.609C766.865 892.931 767.164 893.613 767.505 894.552C767.846 895.491 768.017 896.472 768.017 897.496C768.017 899.288 767.59 900.653 766.737 901.592C765.884 902.445 764.732 902.872 763.281 902.872H741.009ZM746.641 920.92H733.713V874.584C734.225 874.413 735.036 874.243 736.145 874.072C737.254 873.816 738.449 873.688 739.729 873.688C742.033 873.688 743.74 874.157 744.849 875.096C746.044 875.949 746.641 877.443 746.641 879.576V920.92ZM835.592 925.4H822.664V913.624C822.664 908.931 821.341 905.475 818.696 903.256C816.136 901.037 812.851 899.928 808.84 899.928C805.683 899.928 802.781 900.525 800.136 901.72C797.491 902.915 795.229 904.323 793.352 905.944L791.944 895.448C793.907 894.083 796.509 892.76 799.752 891.48C802.995 890.115 806.664 889.432 810.76 889.432C818.184 889.432 824.157 891.395 828.68 895.32C833.288 899.245 835.592 905.176 835.592 913.112V925.4ZM782.216 917.208H795.144V950.744C794.547 950.915 793.693 951.128 792.584 951.384C791.56 951.64 790.451 951.768 789.256 951.768C786.867 951.768 785.075 951.341 783.88 950.488C782.771 949.549 782.216 947.971 782.216 945.752V917.208ZM822.664 917.336L835.592 917.464V950.744C835.08 950.915 834.269 951.128 833.16 951.384C832.051 951.64 830.899 951.768 829.704 951.768C827.315 951.768 825.523 951.341 824.328 950.488C823.219 949.549 822.664 947.971 822.664 945.752V917.336ZM795.144 923.736H782.216V867.928C782.728 867.757 783.539 867.587 784.648 867.416C785.757 867.16 786.952 867.032 788.232 867.032C790.536 867.032 792.243 867.459 793.352 868.312C794.547 869.165 795.144 870.701 795.144 872.92V923.736Z" fill="url(#paint3_linear_7_76)"/>
<defs>
<linearGradient id="paint0_linear_7_76" x1="413.5" y1="468.808" x2="628.086" y2="416.268" gradientUnits="userSpaceOnUse">
<stop stop-color="#9945FF"/>
<stop offset="1" stop-color="#14F195"/>
</linearGradient>
<linearGradient id="paint1_linear_7_76" x1="737.563" y1="154.877" x2="304.287" y2="698.949" gradientUnits="userSpaceOnUse">
<stop stop-color="#14F195"/>
<stop offset="1" stop-color="#9945FF"/>
</linearGradient>
<linearGradient id="paint2_linear_7_76" x1="412.259" y1="594.433" x2="578.372" y2="378.333" gradientUnits="userSpaceOnUse">
<stop offset="0.08" stop-color="#9945FF"/>
<stop offset="0.3" stop-color="#8752F3"/>
<stop offset="0.5" stop-color="#5497D5"/>
<stop offset="0.6" stop-color="#43B4CA"/>
<stop offset="0.72" stop-color="#28E0B9"/>
<stop offset="0.97" stop-color="#19FB9B"/>
</linearGradient>
<linearGradient id="paint3_linear_7_76" x1="314" y1="926.808" x2="672.639" y2="747.643" gradientUnits="userSpaceOnUse">
<stop stop-color="#9945FF"/>
<stop offset="1" stop-color="#14F195"/>
</linearGradient>
</defs>
</svg>
