<svg width="190" height="128" viewBox="0 0 190 128" fill="none" xmlns="http://www.w3.org/2000/svg">
<rect width="190" height="128" fill="black"/>
<g clip-path="url(#clip0_9_67)">
<path d="M72.6844 33.8177L93.3374 23.8451C93.8347 23.605 94.4124 23.596 94.917 23.8205L117.354 33.8049C117.991 34.0881 118.417 34.6936 118.438 35.3899C118.543 38.7553 118.536 48.8937 115.057 55.0323C111.782 60.8131 98.6528 68.0184 95.0436 69.9212C94.4666 70.2254 93.7844 70.1918 93.2358 69.8388C90.22 67.8984 80.2767 61.2498 75.5626 55.0323C71.0388 49.0659 71.4172 38.5784 71.6647 35.2848C71.7128 34.6453 72.1069 34.0965 72.6844 33.8177Z" fill="url(#paint0_linear_9_67)"/>
<path d="M90.3062 45.6628V39.3956L95.3471 35.6692L99.6928 39.3956V45.6628L90.3062 49.8974V54.9789L95.3471 58.1972L99.6928 54.9789V49.8974" stroke="white" stroke-width="2.816" stroke-linecap="round"/>
</g>
<path d="M42.8186 91.4967C43.6435 91.4967 44.2479 91.3331 44.6319 91.006C45.0159 90.6789 45.2079 90.2807 45.2079 89.8113C45.2079 89.3847 45.0515 89.0362 44.7386 88.766C44.4399 88.4958 43.9919 88.2682 43.3946 88.0833L42.0292 87.6567C41.3181 87.4149 40.6923 87.1447 40.1519 86.846C39.6115 86.5331 39.1919 86.142 38.8932 85.6727C38.5946 85.2033 38.4452 84.6131 38.4452 83.902C38.4452 82.75 38.879 81.8398 39.7466 81.1713C40.6141 80.4887 41.8017 80.1473 43.3092 80.1473C44.1057 80.1473 44.8168 80.2255 45.4426 80.382C46.0683 80.5384 46.559 80.766 46.9146 81.0647C47.2701 81.3491 47.4479 81.6904 47.4479 82.0887C47.4479 82.3589 47.3768 82.6007 47.2346 82.814C47.1066 83.0273 46.943 83.198 46.7439 83.326C46.4026 83.0984 45.9475 82.8922 45.3786 82.7073C44.8239 82.5224 44.2123 82.43 43.5439 82.43C42.8186 82.43 42.2568 82.5651 41.8586 82.8353C41.4746 83.1055 41.2826 83.4611 41.2826 83.902C41.2826 84.2433 41.4177 84.5278 41.6879 84.7553C41.9581 84.9829 42.3706 85.1749 42.9252 85.3313L44.1412 85.7153C45.3928 86.0851 46.3528 86.59 47.0212 87.23C47.7039 87.87 48.0452 88.7375 48.0452 89.8327C48.0452 90.9989 47.5972 91.9518 46.7012 92.6913C45.8195 93.4167 44.5466 93.7793 42.8826 93.7793C42.015 93.7793 41.2399 93.6798 40.5572 93.4807C39.8888 93.2958 39.3626 93.0398 38.9786 92.7127C38.5946 92.3713 38.4026 92.0015 38.4026 91.6033C38.4026 91.262 38.495 90.9775 38.6799 90.75C38.879 90.5224 39.1066 90.3518 39.3626 90.238C39.7181 90.5509 40.1875 90.8424 40.7706 91.1127C41.3679 91.3687 42.0506 91.4967 42.8186 91.4967ZM60.2274 88.382C60.2274 89.4771 60.0141 90.43 59.5874 91.2407C59.1607 92.0371 58.5563 92.6558 57.7741 93.0967C56.9918 93.5375 56.0674 93.758 55.0007 93.758C53.9483 93.758 53.0238 93.5447 52.2274 93.118C51.4452 92.6771 50.8407 92.0513 50.4141 91.2407C49.9874 90.43 49.7741 89.4771 49.7741 88.382C49.7741 87.2727 49.9874 86.3198 50.4141 85.5233C50.855 84.7269 51.4665 84.1153 52.2487 83.6887C53.0452 83.2478 53.9625 83.0273 55.0007 83.0273C56.0532 83.0273 56.9705 83.2478 57.7527 83.6887C58.535 84.1295 59.1394 84.7482 59.5661 85.5447C60.007 86.3411 60.2274 87.2869 60.2274 88.382ZM55.0007 85.1607C54.247 85.1607 53.6425 85.4451 53.1874 86.014C52.7465 86.5829 52.5261 87.3722 52.5261 88.382C52.5261 89.406 52.7394 90.2024 53.1661 90.7713C53.607 91.326 54.2185 91.6033 55.0007 91.6033C55.783 91.6033 56.3874 91.3189 56.8141 90.75C57.255 90.1811 57.4754 89.3918 57.4754 88.382C57.4754 87.3722 57.255 86.5829 56.8141 86.014C56.3732 85.4451 55.7687 85.1607 55.0007 85.1607ZM62.5807 87.806L65.2687 87.934V93.4167C65.155 93.4451 64.9843 93.4807 64.7567 93.5233C64.5434 93.566 64.3087 93.5873 64.0527 93.5873C63.5407 93.5873 63.1638 93.4949 62.9221 93.31C62.6945 93.1251 62.5807 92.798 62.5807 92.3287V87.806ZM65.2687 89.2993L62.5807 89.1927V79.5713C62.6945 79.5287 62.8581 79.4931 63.0714 79.4647C63.299 79.422 63.5407 79.4007 63.7967 79.4007C64.3087 79.4007 64.6785 79.4931 64.9061 79.678C65.1478 79.8487 65.2687 80.1758 65.2687 80.6593V89.2993ZM72.0874 93.758C70.6794 93.758 69.563 93.4807 68.7381 92.926C67.9132 92.3713 67.5007 91.5535 67.5007 90.4727C67.5007 89.5198 67.7994 88.7944 68.3967 88.2967C69.0083 87.7847 69.8901 87.4718 71.0421 87.358L73.9647 87.0593V86.6753C73.9647 86.1207 73.7656 85.7224 73.3674 85.4807C72.9692 85.2247 72.4216 85.0967 71.7247 85.0967C71.1701 85.0967 70.6296 85.1678 70.1034 85.31C69.5772 85.4522 69.1078 85.6158 68.6954 85.8007C68.539 85.6869 68.4038 85.5304 68.2901 85.3313C68.1905 85.1322 68.1407 84.926 68.1407 84.7127C68.1407 84.1864 68.4252 83.7953 68.9941 83.5393C69.3923 83.3687 69.8545 83.2407 70.3807 83.1553C70.9212 83.07 71.4616 83.0273 72.0021 83.0273C73.3958 83.0273 74.5052 83.326 75.3301 83.9233C76.1692 84.5064 76.5887 85.4309 76.5887 86.6967V91.6247C76.5887 91.966 76.5034 92.2362 76.3327 92.4353C76.1763 92.6344 75.963 92.8122 75.6927 92.9687C75.2945 93.1962 74.7896 93.3811 74.1781 93.5233C73.5665 93.6798 72.8696 93.758 72.0874 93.758ZM72.0874 91.71C72.4998 91.71 72.8767 91.6673 73.2181 91.582C73.5594 91.4967 73.8083 91.4042 73.9647 91.3047V88.9367L71.8954 89.1287C71.3265 89.1713 70.8927 89.2993 70.5941 89.5127C70.2954 89.7118 70.1461 90.0104 70.1461 90.4087C70.1461 90.8069 70.3025 91.1269 70.6154 91.3687C70.9283 91.5962 71.419 91.71 72.0874 91.71ZM88.6306 86.846V88.9153H85.9426V86.9313C85.9426 86.3198 85.7648 85.8718 85.4092 85.5873C85.0537 85.3029 84.5843 85.1607 84.0012 85.1607C83.5888 85.1607 83.2119 85.2175 82.8706 85.3313C82.5292 85.4309 82.2235 85.5518 81.9532 85.694V88.9153H79.2439V85.4807C79.2439 85.1393 79.315 84.862 79.4572 84.6487C79.5995 84.4353 79.8199 84.2291 80.1186 84.03C80.5452 83.7598 81.0928 83.5251 81.7612 83.326C82.4439 83.1269 83.1977 83.0273 84.0226 83.0273C85.4875 83.0273 86.6181 83.3544 87.4146 84.0087C88.2252 84.6487 88.6306 85.5944 88.6306 86.846ZM79.2439 87.87H81.9532V93.4167C81.8395 93.4451 81.6688 93.4807 81.4412 93.5233C81.2279 93.566 80.9861 93.5873 80.7159 93.5873C80.2181 93.5873 79.8483 93.4949 79.6066 93.31C79.3648 93.1251 79.2439 92.798 79.2439 92.3287V87.87ZM85.9426 87.87H88.6306V93.4167C88.5168 93.4451 88.3461 93.4807 88.1186 93.5233C87.9052 93.566 87.6706 93.5873 87.4146 93.5873C86.9026 93.5873 86.5257 93.4949 86.2839 93.31C86.0563 93.1251 85.9426 92.798 85.9426 92.3287V87.87ZM95.3374 93.758C93.9294 93.758 92.813 93.4807 91.9881 92.926C91.1632 92.3713 90.7507 91.5535 90.7507 90.4727C90.7507 89.5198 91.0494 88.7944 91.6467 88.2967C92.2583 87.7847 93.1401 87.4718 94.2921 87.358L97.2147 87.0593V86.6753C97.2147 86.1207 97.0156 85.7224 96.6174 85.4807C96.2192 85.2247 95.6716 85.0967 94.9747 85.0967C94.4201 85.0967 93.8796 85.1678 93.3534 85.31C92.8272 85.4522 92.3578 85.6158 91.9454 85.8007C91.789 85.6869 91.6538 85.5304 91.5401 85.3313C91.4405 85.1322 91.3907 84.926 91.3907 84.7127C91.3907 84.1864 91.6752 83.7953 92.2441 83.5393C92.6423 83.3687 93.1045 83.2407 93.6307 83.1553C94.1712 83.07 94.7116 83.0273 95.2521 83.0273C96.6458 83.0273 97.7552 83.326 98.5801 83.9233C99.4192 84.5064 99.8387 85.4309 99.8387 86.6967V91.6247C99.8387 91.966 99.7534 92.2362 99.5827 92.4353C99.4263 92.6344 99.213 92.8122 98.9427 92.9687C98.5445 93.1962 98.0396 93.3811 97.4281 93.5233C96.8165 93.6798 96.1196 93.758 95.3374 93.758ZM95.3374 91.71C95.7498 91.71 96.1267 91.6673 96.4681 91.582C96.8094 91.4967 97.0583 91.4042 97.2147 91.3047V88.9367L95.1454 89.1287C94.5765 89.1713 94.1427 89.2993 93.8441 89.5127C93.5454 89.7118 93.3961 90.0104 93.3961 90.4087C93.3961 90.8069 93.5525 91.1269 93.8654 91.3687C94.1783 91.5962 94.669 91.71 95.3374 91.71ZM112.013 82.7713H111.906C111.735 83.2549 111.536 83.8167 111.309 84.4567C111.095 85.0967 110.868 85.7651 110.626 86.462C110.399 87.1589 110.178 87.8273 109.965 88.4673L109.666 89.8753C109.581 90.1455 109.488 90.4442 109.389 90.7713C109.303 91.0984 109.211 91.4255 109.111 91.7527C109.012 92.0798 108.912 92.3927 108.813 92.6913C108.727 92.9758 108.656 93.2247 108.599 93.438C108.443 93.4949 108.279 93.5447 108.109 93.5873C107.952 93.63 107.753 93.6513 107.511 93.6513C107.028 93.6513 106.651 93.5589 106.381 93.374C106.111 93.1749 105.975 92.8975 105.975 92.542C105.975 92.3713 105.997 92.2078 106.039 92.0513C106.096 91.8807 106.16 91.6887 106.231 91.4753C106.374 91.006 106.559 90.4158 106.786 89.7047C107.028 88.9935 107.291 88.2255 107.575 87.4007C107.874 86.5758 108.173 85.7509 108.471 84.926C108.77 84.0869 109.055 83.3047 109.325 82.5793C109.595 81.854 109.823 81.2495 110.007 80.766C110.192 80.6664 110.47 80.5669 110.839 80.4673C111.209 80.3678 111.572 80.318 111.927 80.318C112.439 80.318 112.902 80.3962 113.314 80.5527C113.727 80.6949 113.99 80.9367 114.103 81.278C114.402 82.046 114.715 82.9349 115.042 83.9447C115.383 84.9544 115.732 86.0069 116.087 87.102C116.443 88.1971 116.777 89.2638 117.09 90.302C117.417 91.326 117.702 92.2504 117.943 93.0753C117.815 93.2318 117.623 93.3598 117.367 93.4593C117.111 93.5731 116.813 93.63 116.471 93.63C115.974 93.63 115.618 93.5447 115.405 93.374C115.206 93.1891 115.049 92.9047 114.935 92.5207L114.103 89.7687L113.783 88.3393C113.584 87.6424 113.371 86.9527 113.143 86.27C112.916 85.5731 112.703 84.926 112.503 84.3287C112.319 83.7171 112.155 83.198 112.013 82.7713ZM108.45 90.3873L109.474 88.19H114.786L115.17 90.3873H108.45ZM119.64 89.5767V87.9127H122.349V89.534C122.349 90.2593 122.541 90.7855 122.925 91.1127C123.309 91.4398 123.842 91.6033 124.525 91.6033C124.966 91.6033 125.336 91.5607 125.634 91.4753C125.947 91.39 126.182 91.2975 126.338 91.198V87.9127H129.026V91.454C129.026 91.7811 128.97 92.0584 128.856 92.286C128.742 92.4993 128.536 92.6913 128.237 92.862C127.839 93.118 127.32 93.3313 126.68 93.502C126.04 93.6727 125.314 93.758 124.504 93.758C123.522 93.758 122.662 93.6087 121.922 93.31C121.197 93.0113 120.635 92.5562 120.237 91.9447C119.839 91.3331 119.64 90.5438 119.64 89.5767ZM129.026 88.9153H126.338V83.3687C126.452 83.326 126.616 83.2904 126.829 83.262C127.057 83.2193 127.298 83.198 127.554 83.198C128.081 83.198 128.458 83.2904 128.685 83.4753C128.913 83.646 129.026 83.9731 129.026 84.4567V88.9153ZM122.349 88.9153H119.64V83.3687C119.754 83.326 119.924 83.2904 120.152 83.262C120.379 83.2193 120.621 83.198 120.877 83.198C121.389 83.198 121.759 83.2904 121.986 83.4753C122.228 83.646 122.349 83.9731 122.349 84.4567V88.9153ZM131.787 87.806H134.453V90.302C134.453 90.7571 134.588 91.0842 134.859 91.2833C135.143 91.4824 135.534 91.582 136.032 91.582C136.259 91.582 136.501 91.5535 136.757 91.4967C137.027 91.4255 137.255 91.3544 137.44 91.2833C137.554 91.3971 137.646 91.5393 137.717 91.71C137.803 91.8664 137.845 92.0513 137.845 92.2647C137.845 92.6913 137.653 93.0469 137.269 93.3313C136.885 93.6015 136.267 93.7367 135.413 93.7367C134.29 93.7367 133.401 93.4878 132.747 92.99C132.107 92.478 131.787 91.6389 131.787 90.4727V87.806ZM133.408 85.6513V83.5393H137.589C137.66 83.6389 137.724 83.7811 137.781 83.966C137.838 84.1509 137.867 84.3571 137.867 84.5847C137.867 84.9402 137.781 85.2104 137.611 85.3953C137.44 85.566 137.212 85.6513 136.928 85.6513H133.408ZM134.453 88.382H131.787V80.6807C131.9 80.6522 132.064 80.6167 132.277 80.574C132.505 80.5313 132.747 80.51 133.003 80.51C133.5 80.51 133.863 80.6024 134.091 80.7873C134.332 80.9722 134.453 81.2993 134.453 81.7687V88.382ZM149.382 89.1287H146.672V87.1873C146.672 86.4762 146.48 85.9642 146.096 85.6513C145.726 85.3242 145.25 85.1607 144.667 85.1607C144.169 85.1607 143.721 85.2531 143.323 85.438C142.925 85.6229 142.583 85.8362 142.299 86.078L142.15 83.902C142.491 83.6887 142.91 83.4895 143.408 83.3047C143.92 83.1198 144.496 83.0273 145.136 83.0273C146.416 83.0273 147.44 83.3615 148.208 84.03C148.99 84.6984 149.382 85.7082 149.382 87.0593V89.1287ZM139.995 87.806H142.704V93.4167C142.59 93.4451 142.42 93.4807 142.192 93.5233C141.979 93.566 141.737 93.5873 141.467 93.5873C140.969 93.5873 140.599 93.4949 140.358 93.31C140.116 93.1251 139.995 92.798 139.995 92.3287V87.806ZM146.672 87.806L149.382 87.8273V93.4167C149.268 93.4451 149.097 93.4807 148.87 93.5233C148.656 93.566 148.422 93.5873 148.166 93.5873C147.654 93.5873 147.277 93.4949 147.035 93.31C146.793 93.1251 146.672 92.798 146.672 92.3287V87.806ZM142.704 89.1927H139.995V79.5713C140.109 79.5287 140.279 79.4931 140.507 79.4647C140.734 79.422 140.976 79.4007 141.232 79.4007C141.744 79.4007 142.114 79.4931 142.342 79.678C142.583 79.8487 142.704 80.1758 142.704 80.6593V89.1927Z" fill="white"/>
<defs>
<linearGradient id="paint0_linear_9_67" x1="74.1354" y1="33.0194" x2="104.014" y2="68.6572" gradientUnits="userSpaceOnUse">
<stop offset="0.2" stop-color="#9945FF"/>
<stop offset="1" stop-color="#14F195"/>
</linearGradient>
<clipPath id="clip0_9_67">
<rect width="46.9333" height="46.9716" fill="white" transform="translate(71.5332 23.4666)"/>
</clipPath>
</defs>
</svg>
