<svg width="48" height="48" viewBox="0 0 48 48" fill="none" xmlns="http://www.w3.org/2000/svg">
<rect width="48" height="48" fill="black"/>
<path d="M3.0793 11.7044L22.4414 2.3552C22.9076 2.13008 23.4493 2.12164 23.9223 2.33212L44.9571 11.6924C45.5538 11.9579 45.9534 12.5257 45.9736 13.1785C46.0714 16.3336 46.0647 25.8382 42.8037 31.5932C39.7329 37.0126 27.4247 43.7675 24.0411 45.5514C23.5001 45.8367 22.8605 45.8051 22.3461 45.4742C19.5188 43.655 10.197 37.422 5.77755 31.5932C1.53656 25.9997 1.89129 16.1677 2.12329 13.0799C2.16834 12.4803 2.53783 11.9659 3.0793 11.7044Z" fill="url(#paint0_linear_9_41)"/>
<path d="M18.6001 22.8428V17.1301L23.3264 13.7334L27.4007 17.1301V22.8428L18.6001 26.7027V31.3346L23.3264 34.2682L27.4007 31.3346V26.7027" stroke="white" stroke-width="2.64015" stroke-linecap="round"/>
<defs>
<linearGradient id="paint0_linear_9_41" x1="4.43958" y1="10.956" x2="32.4512" y2="44.3664" gradientUnits="userSpaceOnUse">
<stop offset="0.2" stop-color="#9945FF"/>
<stop offset="1" stop-color="#14F195"/>
</linearGradient>
</defs>
</svg>
