<svg width="1080" height="1080" viewBox="0 0 1080 1080" fill="none" xmlns="http://www.w3.org/2000/svg">
<rect width="1080" height="1080" fill="white"/>
<path d="M841 269V435.972C841 547.067 787.348 651.321 696.945 715.895L540 828L383.054 715.895C292.652 651.321 239 547.067 239 435.972V269L540 140L841 269Z" fill="url(#paint0_linear_7_563)"/>
<g filter="url(#filter0_d_7_563)">
<path d="M494.787 482.86V642.24H480.132C452.518 642.24 430.132 619.854 430.132 592.24V453.74L494.787 482.86ZM650.365 592.24C650.364 619.854 627.979 642.24 600.365 642.24H585.709V488.53L650.365 456.782V592.24ZM540 457.34C556.074 457.34 569.504 468.648 572.776 483.741L585.709 477.39V488.53L573.332 494.609C571.478 511.377 557.263 524.42 540 524.42C521.477 524.42 506.46 509.404 506.46 490.88C506.46 489.966 506.497 489.061 506.569 488.166L494.787 482.86V471.893L508.918 478.258C513.905 465.99 525.942 457.34 540 457.34ZM384.671 405.844C398.062 405.844 408.917 416.699 408.917 430.089C408.917 431.12 408.853 432.136 408.728 433.133L430.132 442.773V453.74L405.433 442.617C401.186 449.64 393.477 454.335 384.671 454.335C383.869 454.335 383.075 454.295 382.292 454.219L372.806 477.936C379.911 482.163 384.671 489.918 384.671 498.785C384.671 512.176 373.817 523.031 360.426 523.031C347.036 523.031 336.18 512.176 336.18 498.785C336.18 485.395 347.036 474.54 360.426 474.54C361.407 474.54 362.375 474.6 363.326 474.713L372.732 451.195C365.384 447.03 360.426 439.139 360.426 430.089C360.426 416.699 371.281 405.844 384.671 405.844ZM600.365 306.84C627.979 306.84 650.365 329.226 650.365 356.84V445.642L585.709 477.39V371.495H494.787V471.893L430.132 442.773V356.84C430.132 329.226 452.518 306.84 480.132 306.84H600.365ZM688.086 338.66C701.477 338.661 712.331 349.515 712.331 362.905C712.331 373.691 705.289 382.83 695.551 385.979L698.429 404.035C698.707 404.026 698.986 404.02 699.266 404.02C712.656 404.02 723.512 414.875 723.512 428.266C723.512 441.656 712.656 452.512 699.266 452.512C691.164 452.512 683.992 448.537 679.589 442.433L650.365 456.782V445.642L675.54 433.28C675.2 431.662 675.02 429.985 675.02 428.266C675.02 418.668 680.597 410.374 688.687 406.444L685.59 387.025C673.372 385.775 663.84 375.453 663.84 362.905C663.84 349.515 674.696 338.66 688.086 338.66Z" fill="white"/>
</g>
<path d="M543.522 503.044C545.595 501.832 546.987 499.582 546.987 497.007C546.987 493.148 543.859 490.02 540 490.02C536.141 490.02 533.012 493.148 533.012 497.007C533.012 499.582 534.405 501.832 536.478 503.044L534.41 510.284V512.38H545.59V510.284L543.522 503.044Z" fill="black"/>
<path d="M321.559 958.992C324.962 958.992 327.455 958.317 329.039 956.968C330.623 955.619 331.415 953.976 331.415 952.04C331.415 950.28 330.77 948.843 329.479 947.728C328.247 946.613 326.399 945.675 323.935 944.912L318.303 943.152C315.37 942.155 312.788 941.04 310.559 939.808C308.33 938.517 306.599 936.904 305.367 934.968C304.135 933.032 303.519 930.597 303.519 927.664C303.519 922.912 305.308 919.157 308.887 916.4C312.466 913.584 317.364 912.176 323.583 912.176C326.868 912.176 329.802 912.499 332.383 913.144C334.964 913.789 336.988 914.728 338.455 915.96C339.922 917.133 340.655 918.541 340.655 920.184C340.655 921.299 340.362 922.296 339.775 923.176C339.247 924.056 338.572 924.76 337.751 925.288C336.343 924.349 334.466 923.499 332.119 922.736C329.831 921.973 327.308 921.592 324.551 921.592C321.559 921.592 319.242 922.149 317.599 923.264C316.015 924.379 315.223 925.845 315.223 927.664C315.223 929.072 315.78 930.245 316.895 931.184C318.01 932.123 319.711 932.915 321.999 933.56L327.015 935.144C332.178 936.669 336.138 938.752 338.895 941.392C341.711 944.032 343.119 947.611 343.119 952.128C343.119 956.939 341.271 960.869 337.575 963.92C333.938 966.912 328.687 968.408 321.823 968.408C318.244 968.408 315.047 967.997 312.231 967.176C309.474 966.413 307.303 965.357 305.719 964.008C304.135 962.6 303.343 961.075 303.343 959.432C303.343 958.024 303.724 956.851 304.487 955.912C305.308 954.973 306.247 954.269 307.303 953.8C308.77 955.091 310.706 956.293 313.111 957.408C315.575 958.464 318.391 958.992 321.559 958.992ZM393.37 946.144C393.37 950.661 392.49 954.592 390.73 957.936C388.97 961.221 386.477 963.773 383.25 965.592C380.024 967.411 376.21 968.32 371.81 968.32C367.469 968.32 363.656 967.44 360.37 965.68C357.144 963.861 354.65 961.28 352.89 957.936C351.13 954.592 350.25 950.661 350.25 946.144C350.25 941.568 351.13 937.637 352.89 934.352C354.709 931.067 357.232 928.544 360.458 926.784C363.744 924.965 367.528 924.056 371.81 924.056C376.152 924.056 379.936 924.965 383.162 926.784C386.389 928.603 388.882 931.155 390.642 934.44C392.461 937.725 393.37 941.627 393.37 946.144ZM371.81 932.856C368.701 932.856 366.208 934.029 364.33 936.376C362.512 938.723 361.602 941.979 361.602 946.144C361.602 950.368 362.482 953.653 364.242 956C366.061 958.288 368.584 959.432 371.81 959.432C375.037 959.432 377.53 958.259 379.29 955.912C381.109 953.565 382.018 950.309 382.018 946.144C382.018 941.979 381.109 938.723 379.29 936.376C377.472 934.029 374.978 932.856 371.81 932.856ZM403.078 943.768L414.166 944.296V966.912C413.697 967.029 412.993 967.176 412.054 967.352C411.174 967.528 410.206 967.616 409.15 967.616C407.038 967.616 405.483 967.235 404.486 966.472C403.547 965.709 403.078 964.36 403.078 962.424V943.768ZM414.166 949.928L403.078 949.488V909.8C403.547 909.624 404.222 909.477 405.102 909.36C406.041 909.184 407.038 909.096 408.094 909.096C410.206 909.096 411.731 909.477 412.67 910.24C413.667 910.944 414.166 912.293 414.166 914.288V949.928ZM442.293 968.32C436.485 968.32 431.88 967.176 428.477 964.888C425.074 962.6 423.373 959.227 423.373 954.768C423.373 950.837 424.605 947.845 427.069 945.792C429.592 943.68 433.229 942.389 437.981 941.92L450.037 940.688V939.104C450.037 936.816 449.216 935.173 447.573 934.176C445.93 933.12 443.672 932.592 440.797 932.592C438.509 932.592 436.28 932.885 434.109 933.472C431.938 934.059 430.002 934.733 428.301 935.496C427.656 935.027 427.098 934.381 426.629 933.56C426.218 932.739 426.013 931.888 426.013 931.008C426.013 928.837 427.186 927.224 429.533 926.168C431.176 925.464 433.082 924.936 435.253 924.584C437.482 924.232 439.712 924.056 441.941 924.056C447.69 924.056 452.266 925.288 455.669 927.752C459.13 930.157 460.861 933.971 460.861 939.192V959.52C460.861 960.928 460.509 962.043 459.805 962.864C459.16 963.685 458.28 964.419 457.165 965.064C455.522 966.003 453.44 966.765 450.917 967.352C448.394 967.997 445.52 968.32 442.293 968.32ZM442.293 959.872C443.994 959.872 445.549 959.696 446.957 959.344C448.365 958.992 449.392 958.611 450.037 958.2V948.432L441.501 949.224C439.154 949.4 437.365 949.928 436.133 950.808C434.901 951.629 434.285 952.861 434.285 954.504C434.285 956.147 434.93 957.467 436.221 958.464C437.512 959.403 439.536 959.872 442.293 959.872ZM510.534 939.808V948.344H499.446V940.16C499.446 937.637 498.712 935.789 497.246 934.616C495.779 933.443 493.843 932.856 491.438 932.856C489.736 932.856 488.182 933.091 486.774 933.56C485.366 933.971 484.104 934.469 482.99 935.056V948.344H471.814V934.176C471.814 932.768 472.107 931.624 472.694 930.744C473.28 929.864 474.19 929.013 475.422 928.192C477.182 927.077 479.44 926.109 482.198 925.288C485.014 924.467 488.123 924.056 491.526 924.056C497.568 924.056 502.232 925.405 505.518 928.104C508.862 930.744 510.534 934.645 510.534 939.808ZM471.814 944.032H482.99V966.912C482.52 967.029 481.816 967.176 480.878 967.352C479.998 967.528 479 967.616 477.886 967.616C475.832 967.616 474.307 967.235 473.31 966.472C472.312 965.709 471.814 964.36 471.814 962.424V944.032ZM499.446 944.032H510.534V966.912C510.064 967.029 509.36 967.176 508.422 967.352C507.542 967.528 506.574 967.616 505.518 967.616C503.406 967.616 501.851 967.235 500.854 966.472C499.915 965.709 499.446 964.36 499.446 962.424V944.032ZM538.199 968.32C532.391 968.32 527.786 967.176 524.383 964.888C520.981 962.6 519.279 959.227 519.279 954.768C519.279 950.837 520.511 947.845 522.975 945.792C525.498 943.68 529.135 942.389 533.887 941.92L545.943 940.688V939.104C545.943 936.816 545.122 935.173 543.479 934.176C541.837 933.12 539.578 932.592 536.703 932.592C534.415 932.592 532.186 932.885 530.015 933.472C527.845 934.059 525.909 934.733 524.207 935.496C523.562 935.027 523.005 934.381 522.535 933.56C522.125 932.739 521.919 931.888 521.919 931.008C521.919 928.837 523.093 927.224 525.439 926.168C527.082 925.464 528.989 924.936 531.159 924.584C533.389 924.232 535.618 924.056 537.847 924.056C543.597 924.056 548.173 925.288 551.575 927.752C555.037 930.157 556.767 933.971 556.767 939.192V959.52C556.767 960.928 556.415 962.043 555.711 962.864C555.066 963.685 554.186 964.419 553.071 965.064C551.429 966.003 549.346 966.765 546.823 967.352C544.301 967.997 541.426 968.32 538.199 968.32ZM538.199 959.872C539.901 959.872 541.455 959.696 542.863 959.344C544.271 958.992 545.298 958.611 545.943 958.2V948.432L537.407 949.224C535.061 949.4 533.271 949.928 532.039 950.808C530.807 951.629 530.191 952.861 530.191 954.504C530.191 956.147 530.837 957.467 532.127 958.464C533.418 959.403 535.442 959.872 538.199 959.872ZM606.985 923H606.545C605.841 924.995 605.02 927.312 604.081 929.952C603.201 932.592 602.262 935.349 601.265 938.224C600.326 941.099 599.417 943.856 598.537 946.496L597.305 952.304C596.953 953.419 596.572 954.651 596.161 956C595.809 957.349 595.428 958.699 595.017 960.048C594.606 961.397 594.196 962.688 593.785 963.92C593.433 965.093 593.14 966.12 592.905 967C592.26 967.235 591.585 967.44 590.881 967.616C590.236 967.792 589.414 967.88 588.417 967.88C586.422 967.88 584.868 967.499 583.753 966.736C582.638 965.915 582.081 964.771 582.081 963.304C582.081 962.6 582.169 961.925 582.345 961.28C582.58 960.576 582.844 959.784 583.137 958.904C583.724 956.968 584.486 954.533 585.425 951.6C586.422 948.667 587.508 945.499 588.681 942.096C589.913 938.693 591.145 935.291 592.377 931.888C593.609 928.427 594.782 925.2 595.897 922.208C597.012 919.216 597.95 916.723 598.713 914.728C599.476 914.317 600.62 913.907 602.145 913.496C603.67 913.085 605.166 912.88 606.633 912.88C608.745 912.88 610.652 913.203 612.353 913.848C614.054 914.435 615.14 915.432 615.609 916.84C616.841 920.008 618.132 923.675 619.481 927.84C620.889 932.005 622.326 936.347 623.793 940.864C625.26 945.381 626.638 949.781 627.929 954.064C629.278 958.288 630.452 962.101 631.449 965.504C630.921 966.149 630.129 966.677 629.073 967.088C628.017 967.557 626.785 967.792 625.377 967.792C623.324 967.792 621.857 967.44 620.977 966.736C620.156 965.973 619.51 964.8 619.041 963.216L615.609 951.864L614.289 945.968C613.468 943.093 612.588 940.248 611.649 937.432C610.71 934.557 609.83 931.888 609.009 929.424C608.246 926.901 607.572 924.76 606.985 923ZM592.289 954.416L596.513 945.352H618.425L620.009 954.416H592.289ZM638.446 951.072V944.208H649.622V950.896C649.622 953.888 650.414 956.059 651.998 957.408C653.582 958.757 655.782 959.432 658.598 959.432C660.417 959.432 661.942 959.256 663.174 958.904C664.465 958.552 665.433 958.171 666.078 957.76V944.208H677.166V958.816C677.166 960.165 676.932 961.309 676.462 962.248C675.993 963.128 675.142 963.92 673.91 964.624C672.268 965.68 670.126 966.56 667.486 967.264C664.846 967.968 661.854 968.32 658.51 968.32C654.462 968.32 650.913 967.704 647.862 966.472C644.87 965.24 642.553 963.363 640.91 960.84C639.268 958.317 638.446 955.061 638.446 951.072ZM677.166 948.344H666.078V925.464C666.548 925.288 667.222 925.141 668.102 925.024C669.041 924.848 670.038 924.76 671.094 924.76C673.265 924.76 674.82 925.141 675.758 925.904C676.697 926.608 677.166 927.957 677.166 929.952V948.344ZM649.622 948.344H638.446V925.464C638.916 925.288 639.62 925.141 640.558 925.024C641.497 924.848 642.494 924.76 643.55 924.76C645.662 924.76 647.188 925.141 648.126 925.904C649.124 926.608 649.622 927.957 649.622 929.952V948.344ZM688.552 943.768H699.552V954.064C699.552 955.941 700.109 957.291 701.224 958.112C702.397 958.933 704.011 959.344 706.064 959.344C707.003 959.344 708 959.227 709.056 958.992C710.171 958.699 711.109 958.405 711.872 958.112C712.341 958.581 712.723 959.168 713.016 959.872C713.368 960.517 713.544 961.28 713.544 962.16C713.544 963.92 712.752 965.387 711.168 966.56C709.584 967.675 707.032 968.232 703.512 968.232C698.877 968.232 695.211 967.205 692.512 965.152C689.872 963.04 688.552 959.579 688.552 954.768V943.768ZM695.24 934.88V926.168H712.488C712.781 926.579 713.045 927.165 713.28 927.928C713.515 928.691 713.632 929.541 713.632 930.48C713.632 931.947 713.28 933.061 712.576 933.824C711.872 934.528 710.933 934.88 709.76 934.88H695.24ZM699.552 946.144H688.552V914.376C689.021 914.259 689.696 914.112 690.576 913.936C691.515 913.76 692.512 913.672 693.568 913.672C695.621 913.672 697.117 914.053 698.056 914.816C699.053 915.579 699.552 916.928 699.552 918.864V946.144ZM761.131 949.224H749.955V941.216C749.955 938.283 749.163 936.171 747.579 934.88C746.054 933.531 744.089 932.856 741.683 932.856C739.63 932.856 737.782 933.237 736.139 934C734.497 934.763 733.089 935.643 731.915 936.64L731.299 927.664C732.707 926.784 734.438 925.963 736.491 925.2C738.603 924.437 740.979 924.056 743.619 924.056C748.899 924.056 753.123 925.435 756.291 928.192C759.518 930.949 761.131 935.115 761.131 940.688V949.224ZM722.411 943.768H733.587V966.912C733.118 967.029 732.414 967.176 731.475 967.352C730.595 967.528 729.598 967.616 728.483 967.616C726.43 967.616 724.905 967.235 723.907 966.472C722.91 965.709 722.411 964.36 722.411 962.424V943.768ZM749.955 943.768L761.131 943.856V966.912C760.662 967.029 759.958 967.176 759.019 967.352C758.139 967.528 757.171 967.616 756.115 967.616C754.003 967.616 752.449 967.235 751.451 966.472C750.454 965.709 749.955 964.36 749.955 962.424V943.768ZM733.587 949.488H722.411V909.8C722.881 909.624 723.585 909.477 724.523 909.36C725.462 909.184 726.459 909.096 727.515 909.096C729.627 909.096 731.153 909.477 732.091 910.24C733.089 910.944 733.587 912.293 733.587 914.288V949.488Z" fill="black"/>
<defs>
<filter id="filter0_d_7_563" x="332.18" y="306.84" width="395.332" height="343.4" filterUnits="userSpaceOnUse" color-interpolation-filters="sRGB">
<feFlood flood-opacity="0" result="BackgroundImageFix"/>
<feColorMatrix in="SourceAlpha" type="matrix" values="0 0 0 0 0 0 0 0 0 0 0 0 0 0 0 0 0 0 127 0" result="hardAlpha"/>
<feOffset dy="4"/>
<feGaussianBlur stdDeviation="2"/>
<feComposite in2="hardAlpha" operator="out"/>
<feColorMatrix type="matrix" values="0 0 0 0 0 0 0 0 0 0 0 0 0 0 0 0 0 0 0.25 0"/>
<feBlend mode="normal" in2="BackgroundImageFix" result="effect1_dropShadow_7_563"/>
<feBlend mode="normal" in="SourceGraphic" in2="effect1_dropShadow_7_563" result="shape"/>
</filter>
<linearGradient id="paint0_linear_7_563" x1="540" y1="140" x2="540" y2="874.023" gradientUnits="userSpaceOnUse">
<stop stop-color="#9945FF"/>
<stop offset="1" stop-color="#14F195"/>
</linearGradient>
</defs>
</svg>
