<svg width="1080" height="1080" viewBox="0 0 1080 1080" fill="none" xmlns="http://www.w3.org/2000/svg">
<rect width="1080" height="1080" fill="black"/>
<path d="M841 269V435.972C841 547.067 787.348 651.321 696.945 715.895L540 828L383.054 715.895C292.652 651.321 239 547.067 239 435.972V269L540 140L841 269Z" fill="url(#paint0_linear_7_540)"/>
<g filter="url(#filter0_d_7_540)">
<path d="M494.787 482.86V642.24H480.132C452.518 642.24 430.132 619.854 430.132 592.24V453.74L494.787 482.86ZM650.365 592.24C650.364 619.854 627.979 642.24 600.365 642.24H585.709V488.53L650.365 456.782V592.24ZM540 457.34C556.074 457.34 569.504 468.648 572.776 483.741L585.709 477.39V488.53L573.332 494.609C571.478 511.377 557.263 524.42 540 524.42C521.477 524.42 506.46 509.404 506.46 490.88C506.46 489.966 506.497 489.061 506.569 488.166L494.787 482.86V471.893L508.918 478.258C513.905 465.99 525.942 457.34 540 457.34ZM384.671 405.844C398.062 405.844 408.917 416.699 408.917 430.089C408.917 431.12 408.853 432.136 408.728 433.133L430.132 442.773V453.74L405.433 442.617C401.186 449.64 393.477 454.335 384.671 454.335C383.868 454.335 383.075 454.295 382.292 454.219L372.806 477.936C379.911 482.163 384.671 489.918 384.671 498.785C384.671 512.176 373.817 523.031 360.426 523.031C347.036 523.031 336.18 512.176 336.18 498.785C336.18 485.395 347.036 474.54 360.426 474.54C361.407 474.54 362.375 474.6 363.326 474.713L372.732 451.195C365.384 447.03 360.426 439.139 360.426 430.089C360.426 416.699 371.281 405.844 384.671 405.844ZM600.365 306.84C627.979 306.84 650.365 329.226 650.365 356.84V445.642L585.709 477.39V371.495H494.787V471.893L430.132 442.773V356.84C430.132 329.226 452.518 306.84 480.132 306.84H600.365ZM688.086 338.66C701.476 338.661 712.331 349.515 712.331 362.905C712.331 373.691 705.289 382.83 695.551 385.979L698.429 404.035C698.707 404.026 698.986 404.02 699.266 404.02C712.656 404.02 723.512 414.875 723.512 428.266C723.512 441.656 712.656 452.512 699.266 452.512C691.164 452.512 683.992 448.537 679.589 442.433L650.365 456.782V445.642L675.54 433.28C675.2 431.662 675.02 429.985 675.02 428.266C675.02 418.668 680.597 410.374 688.687 406.444L685.59 387.025C673.372 385.775 663.84 375.453 663.84 362.905C663.84 349.515 674.696 338.66 688.086 338.66Z" fill="white"/>
</g>
<path d="M543.522 503.044C545.595 501.832 546.988 499.582 546.988 497.007C546.988 493.148 543.859 490.02 540 490.02C536.141 490.02 533.013 493.148 533.013 497.007C533.013 499.582 534.405 501.832 536.478 503.044L534.41 510.284V512.38H545.59V510.284L543.522 503.044Z" fill="black"/>
<path d="M314.387 957.408C317.496 957.408 319.726 956.851 321.075 955.736C322.424 954.621 323.099 953.301 323.099 951.776C323.099 950.309 322.571 949.136 321.515 948.256C320.459 947.376 318.904 946.613 316.851 945.968L312.275 944.56C309.107 943.445 306.291 942.243 303.827 940.952C301.363 939.661 299.456 937.989 298.107 935.936C296.758 933.883 296.083 931.272 296.083 928.104C296.083 923.235 297.931 919.363 301.627 916.488C305.382 913.555 310.574 912.088 317.203 912.088C320.547 912.088 323.51 912.411 326.091 913.056C328.731 913.701 330.784 914.669 332.251 915.96C333.776 917.192 334.539 918.747 334.539 920.624C334.539 921.915 334.216 923.088 333.571 924.144C332.926 925.141 332.134 925.963 331.195 926.608C329.904 925.728 328.115 924.965 325.827 924.32C323.598 923.616 321.163 923.264 318.523 923.264C315.707 923.264 313.595 923.733 312.187 924.672C310.838 925.552 310.163 926.696 310.163 928.104C310.163 929.219 310.632 930.157 311.571 930.92C312.51 931.624 313.888 932.24 315.707 932.768L320.547 934.352C325.886 935.995 329.992 938.165 332.867 940.864C335.742 943.563 337.179 947.229 337.179 951.864C337.179 956.792 335.272 960.811 331.459 963.92C327.646 966.971 322.102 968.496 314.827 968.496C311.248 968.496 308.051 968.115 305.235 967.352C302.419 966.589 300.16 965.475 298.459 964.008C296.816 962.541 295.995 960.84 295.995 958.904C295.995 957.32 296.435 956 297.315 954.944C298.254 953.829 299.28 952.979 300.395 952.392C301.979 953.683 303.944 954.856 306.291 955.912C308.696 956.909 311.395 957.408 314.387 957.408ZM388.208 945.88C388.208 950.456 387.269 954.445 385.392 957.848C383.573 961.192 380.992 963.773 377.648 965.592C374.304 967.411 370.373 968.32 365.856 968.32C361.339 968.32 357.379 967.44 353.976 965.68C350.632 963.861 348.021 961.28 346.144 957.936C344.325 954.533 343.416 950.515 343.416 945.88C343.416 941.245 344.355 937.256 346.232 933.912C348.109 930.568 350.72 927.987 354.064 926.168C357.467 924.349 361.397 923.44 365.856 923.44C370.315 923.44 374.216 924.379 377.56 926.256C380.904 928.075 383.515 930.656 385.392 934C387.269 937.344 388.208 941.304 388.208 945.88ZM365.768 933.824C363.069 933.824 360.928 934.88 359.344 936.992C357.76 939.104 356.968 942.067 356.968 945.88C356.968 949.752 357.731 952.744 359.256 954.856C360.84 956.909 363.04 957.936 365.856 957.936C368.613 957.936 370.755 956.88 372.28 954.768C373.864 952.656 374.656 949.693 374.656 945.88C374.656 942.067 373.864 939.104 372.28 936.992C370.696 934.88 368.525 933.824 365.768 933.824ZM396.841 943.768L410.041 944.032V966.912C409.513 967.088 408.692 967.235 407.577 967.352C406.521 967.528 405.377 967.616 404.145 967.616C401.622 967.616 399.774 967.176 398.601 966.296C397.428 965.416 396.841 963.803 396.841 961.456V943.768ZM410.041 950.896L396.841 950.632V909.712C397.369 909.536 398.161 909.36 399.217 909.184C400.332 909.008 401.505 908.92 402.737 908.92C405.318 908.92 407.166 909.36 408.281 910.24C409.454 911.12 410.041 912.763 410.041 915.168V950.896ZM438.145 968.408C432.103 968.408 427.292 967.235 423.713 964.888C420.135 962.541 418.345 959.051 418.345 954.416C418.345 950.427 419.577 947.376 422.041 945.264C424.505 943.093 428.172 941.744 433.041 941.216L444.833 939.984V939.016C444.833 937.021 444.041 935.584 442.457 934.704C440.932 933.824 438.732 933.384 435.857 933.384C433.628 933.384 431.428 933.648 429.257 934.176C427.145 934.704 425.239 935.349 423.537 936.112C422.833 935.584 422.217 934.851 421.689 933.912C421.22 932.915 420.985 931.888 420.985 930.832C420.985 928.309 422.335 926.491 425.033 925.376C426.735 924.731 428.7 924.261 430.929 923.968C433.217 923.616 435.417 923.44 437.529 923.44C443.631 923.44 448.5 924.701 452.137 927.224C455.833 929.747 457.681 933.707 457.681 939.104V959.08C457.681 960.547 457.3 961.749 456.537 962.688C455.775 963.568 454.807 964.331 453.633 964.976C451.873 966.032 449.673 966.853 447.033 967.44C444.452 968.085 441.489 968.408 438.145 968.408ZM438.145 958.552C439.436 958.552 440.727 958.435 442.017 958.2C443.308 957.907 444.276 957.555 444.921 957.144V948.872L437.529 949.576C435.593 949.693 434.039 950.104 432.865 950.808C431.751 951.512 431.193 952.568 431.193 953.976C431.193 955.325 431.721 956.44 432.777 957.32C433.892 958.141 435.681 958.552 438.145 958.552ZM508.209 939.632V947.904H495.009V940.072C495.009 937.901 494.364 936.317 493.073 935.32C491.841 934.323 490.198 933.824 488.145 933.824C486.737 933.824 485.417 934 484.185 934.352C483.012 934.704 481.926 935.144 480.929 935.672V947.904H467.641V934.176C467.641 932.709 467.964 931.507 468.609 930.568C469.254 929.571 470.164 928.661 471.337 927.84C473.214 926.549 475.62 925.493 478.553 924.672C481.486 923.851 484.742 923.44 488.321 923.44C494.657 923.44 499.556 924.848 503.017 927.664C506.478 930.421 508.209 934.411 508.209 939.632ZM467.641 943.856H480.929V966.912C480.342 967.088 479.492 967.235 478.377 967.352C477.321 967.528 476.177 967.616 474.945 967.616C472.422 967.616 470.574 967.176 469.401 966.296C468.228 965.416 467.641 963.803 467.641 961.456V943.856ZM495.009 943.856H508.209V966.912C507.622 967.088 506.801 967.235 505.745 967.352C504.689 967.528 503.545 967.616 502.313 967.616C499.732 967.616 497.854 967.176 496.681 966.296C495.566 965.416 495.009 963.803 495.009 961.456V943.856ZM535.856 968.408C529.813 968.408 525.003 967.235 521.424 964.888C517.845 962.541 516.056 959.051 516.056 954.416C516.056 950.427 517.288 947.376 519.752 945.264C522.216 943.093 525.883 941.744 530.752 941.216L542.544 939.984V939.016C542.544 937.021 541.752 935.584 540.168 934.704C538.643 933.824 536.443 933.384 533.568 933.384C531.339 933.384 529.139 933.648 526.968 934.176C524.856 934.704 522.949 935.349 521.248 936.112C520.544 935.584 519.928 934.851 519.4 933.912C518.931 932.915 518.696 931.888 518.696 930.832C518.696 928.309 520.045 926.491 522.744 925.376C524.445 924.731 526.411 924.261 528.64 923.968C530.928 923.616 533.128 923.44 535.24 923.44C541.341 923.44 546.211 924.701 549.848 927.224C553.544 929.747 555.392 933.707 555.392 939.104V959.08C555.392 960.547 555.011 961.749 554.248 962.688C553.485 963.568 552.517 964.331 551.344 964.976C549.584 966.032 547.384 966.853 544.744 967.44C542.163 968.085 539.2 968.408 535.856 968.408ZM535.856 958.552C537.147 958.552 538.437 958.435 539.728 958.2C541.019 957.907 541.987 957.555 542.632 957.144V948.872L535.24 949.576C533.304 949.693 531.749 950.104 530.576 950.808C529.461 951.512 528.904 952.568 528.904 953.976C528.904 955.325 529.432 956.44 530.488 957.32C531.603 958.141 533.392 958.552 535.856 958.552ZM605.673 925.024H605.233C604.588 926.843 603.884 928.867 603.121 931.096C602.358 933.325 601.566 935.672 600.745 938.136C599.924 940.6 599.161 943.064 598.457 945.528L596.785 953.624C596.433 954.797 596.081 956 595.729 957.232C595.436 958.405 595.113 959.579 594.761 960.752C594.468 961.867 594.174 962.952 593.881 964.008C593.588 965.064 593.324 966.061 593.089 967C592.385 967.176 591.593 967.352 590.713 967.528C589.892 967.763 588.924 967.88 587.809 967.88C585.286 967.88 583.38 967.44 582.089 966.56C580.798 965.621 580.153 964.331 580.153 962.688C580.153 961.925 580.241 961.163 580.417 960.4C580.652 959.637 580.916 958.757 581.209 957.76C581.737 955.824 582.47 953.389 583.409 950.456C584.348 947.523 585.404 944.355 586.577 940.952C587.75 937.491 588.924 934.088 590.097 930.744C591.329 927.4 592.444 924.349 593.441 921.592C594.438 918.776 595.23 916.576 595.817 914.992C596.756 914.464 598.105 913.995 599.865 913.584C601.684 913.115 603.502 912.88 605.321 912.88C607.844 912.88 610.102 913.261 612.097 914.024C614.15 914.728 615.441 915.901 615.969 917.544C617.142 920.653 618.374 924.261 619.665 928.368C620.956 932.416 622.246 936.669 623.537 941.128C624.886 945.528 626.177 949.84 627.409 954.064C628.7 958.229 629.814 961.984 630.753 965.328C630.108 966.032 629.14 966.619 627.849 967.088C626.617 967.616 625.15 967.88 623.449 967.88C620.985 967.88 619.254 967.44 618.257 966.56C617.26 965.68 616.497 964.331 615.969 962.512L613.241 952.832L611.657 945.176C610.953 942.595 610.22 940.101 609.457 937.696C608.753 935.232 608.078 932.915 607.433 930.744C606.788 928.573 606.201 926.667 605.673 925.024ZM590.889 955.208L596.169 944.648H616.585L618.345 955.208H590.889ZM636.852 950.456V944.208H650.14V950.368C650.14 953.008 650.815 954.944 652.164 956.176C653.513 957.349 655.42 957.936 657.884 957.936C659.468 957.936 660.788 957.789 661.844 957.496C662.9 957.203 663.692 956.909 664.22 956.616V944.208H677.42V958.288C677.42 959.696 677.127 960.899 676.54 961.896C676.012 962.893 675.132 963.773 673.9 964.536C672.023 965.709 669.705 966.619 666.948 967.264C664.191 967.968 661.14 968.32 657.796 968.32C653.689 968.32 650.052 967.704 646.884 966.472C643.716 965.24 641.252 963.333 639.492 960.752C637.732 958.112 636.852 954.68 636.852 950.456ZM677.42 948.168H664.22V924.848C664.748 924.672 665.54 924.525 666.596 924.408C667.711 924.232 668.884 924.144 670.116 924.144C672.697 924.144 674.545 924.584 675.66 925.464C676.833 926.285 677.42 927.899 677.42 930.304V948.168ZM650.14 948.168H636.852V924.848C637.439 924.672 638.26 924.525 639.316 924.408C640.372 924.232 641.545 924.144 642.836 924.144C645.417 924.144 647.265 924.584 648.38 925.464C649.553 926.285 650.14 927.899 650.14 930.304V948.168ZM687.645 943.768H700.757V953.096C700.757 954.739 701.285 955.941 702.341 956.704C703.397 957.408 704.864 957.76 706.741 957.76C707.621 957.76 708.56 957.672 709.557 957.496C710.554 957.32 711.434 957.085 712.197 956.792C712.666 957.32 713.077 957.965 713.429 958.728C713.781 959.491 713.957 960.371 713.957 961.368C713.957 963.363 713.136 965.035 711.493 966.384C709.909 967.675 707.152 968.32 703.221 968.32C698.293 968.32 694.45 967.205 691.693 964.976C688.994 962.688 687.645 959.021 687.645 953.976V943.768ZM696.005 935.848V925.64H712.901C713.194 926.168 713.488 926.872 713.781 927.752C714.074 928.632 714.221 929.6 714.221 930.656C714.221 932.475 713.81 933.795 712.989 934.616C712.168 935.437 711.082 935.848 709.733 935.848H696.005ZM700.757 945.968H687.645V914.376C688.173 914.2 688.965 914.024 690.021 913.848C691.136 913.613 692.309 913.496 693.541 913.496C696.064 913.496 697.882 913.965 698.997 914.904C700.17 915.784 700.757 917.397 700.757 919.744V945.968ZM762.674 949.048H749.386V941.216C749.386 938.576 748.711 936.699 747.362 935.584C746.013 934.411 744.311 933.824 742.258 933.824C740.381 933.824 738.679 934.176 737.154 934.88C735.687 935.584 734.426 936.376 733.37 937.256L733.106 926.52C734.455 925.757 736.098 925.053 738.034 924.408C740.029 923.763 742.229 923.44 744.634 923.44C750.207 923.44 754.607 924.877 757.834 927.752C761.061 930.568 762.674 934.792 762.674 940.424V949.048ZM722.106 943.768H735.394V966.912C734.807 967.088 733.957 967.235 732.842 967.352C731.786 967.528 730.642 967.616 729.41 967.616C726.887 967.616 725.039 967.176 723.866 966.296C722.693 965.416 722.106 963.803 722.106 961.456V943.768ZM749.386 943.768H762.674V966.912C762.087 967.088 761.266 967.235 760.21 967.352C759.154 967.528 757.981 967.616 756.69 967.616C754.167 967.616 752.319 967.176 751.146 966.296C749.973 965.416 749.386 963.803 749.386 961.456V943.768ZM735.394 950.632H722.106V909.712C722.693 909.536 723.514 909.36 724.57 909.184C725.626 909.008 726.799 908.92 728.09 908.92C730.671 908.92 732.519 909.36 733.634 910.24C734.807 911.12 735.394 912.763 735.394 915.168V950.632Z" fill="url(#paint1_linear_7_540)"/>
<defs>
<filter id="filter0_d_7_540" x="332.18" y="306.84" width="395.332" height="343.4" filterUnits="userSpaceOnUse" color-interpolation-filters="sRGB">
<feFlood flood-opacity="0" result="BackgroundImageFix"/>
<feColorMatrix in="SourceAlpha" type="matrix" values="0 0 0 0 0 0 0 0 0 0 0 0 0 0 0 0 0 0 127 0" result="hardAlpha"/>
<feOffset dy="4"/>
<feGaussianBlur stdDeviation="2"/>
<feComposite in2="hardAlpha" operator="out"/>
<feColorMatrix type="matrix" values="0 0 0 0 0 0 0 0 0 0 0 0 0 0 0 0 0 0 0.25 0"/>
<feBlend mode="normal" in2="BackgroundImageFix" result="effect1_dropShadow_7_540"/>
<feBlend mode="normal" in="SourceGraphic" in2="effect1_dropShadow_7_540" result="shape"/>
</filter>
<linearGradient id="paint0_linear_7_540" x1="540" y1="140" x2="540" y2="874.023" gradientUnits="userSpaceOnUse">
<stop stop-color="#9945FF"/>
<stop offset="1" stop-color="#14F195"/>
</linearGradient>
<linearGradient id="paint1_linear_7_540" x1="232" y1="928" x2="828" y2="928" gradientUnits="userSpaceOnUse">
<stop stop-color="#9945FF"/>
<stop offset="1" stop-color="#14F195"/>
</linearGradient>
</defs>
</svg>
