<svg width="449" height="432" viewBox="0 0 449 432" fill="none" xmlns="http://www.w3.org/2000/svg">
<path d="M312.578 170.945C273.127 120.117 254.195 89.4766 272.181 0H154.965C144.429 137.528 170.996 201.749 280.791 291.534L305.293 263.043C219.666 195.003 189.825 147.185 189.401 33.7914H227.149C226.755 129.871 245.8 174.094 327.147 229.252C367.201 156.314 378.988 110.752 373.504 17.8896L333.108 7.95092C337.498 89.8463 333.762 126.649 312.578 170.945Z" fill="#555555"/>
<path d="M449 56.319L411.252 37.1043C403.729 191.839 376.615 272.15 227.149 386.945C78.2834 279.568 50.1051 197.929 39.0723 37.1043L0 56.319C20.7121 258.129 78.8548 333.571 227.149 432C388.196 316.122 434.809 233.054 449 56.319Z" fill="#555555"/>
<path d="M74.8333 17.8896L116.555 7.95092C111.545 156.777 139.069 225.897 256.95 316.712L227.149 343.215C98.3145 241.695 77.675 165.786 74.8333 17.8896Z" fill="#555555"/>
</svg>
