<?xml version="1.0" standalone="no"?>
<!DOCTYPE svg PUBLIC "-//W3C//DTD SVG 20010904//EN"
 "http://www.w3.org/TR/2001/REC-SVG-20010904/DTD/svg10.dtd">
<svg version="1.0" xmlns="http://www.w3.org/2000/svg"
 width="300.000000pt" height="322.000000pt" viewBox="0 0 300.000000 322.000000"
 preserveAspectRatio="xMidYMid meet">
<defs>
  <linearGradient id="solanaGradient" x1="0%" y1="0%" x2="100%" y2="100%">
    <stop offset="0%" style="stop-color:#9945FF;stop-opacity:1" />
    <stop offset="100%" style="stop-color:#14F195;stop-opacity:1" />
  </linearGradient>
</defs>
<metadata>
Created by potrace 1.10, written by Peter Selinger 2001-2011
</metadata>
<g transform="translate(0.000000,322.000000) scale(0.100000,-0.100000)"
fill="url(#solanaGradient)" stroke="none">
<path d="M1425 3040 c-100 -67 -400 -204 -580 -264 -179 -60 -424 -116 -508
-116 -47 0 -104 -38 -127 -85 -19 -39 -20 -62 -20 -477 0 -428 5 -520 36 -663
96 -450 427 -831 989 -1138 202 -110 238 -127 274 -127 57 0 336 150 529 284
41 28 84 58 96 66 25 17 95 72 141 110 33 28 200 196 229 231 35 42 143 214
166 264 12 28 28 64 36 80 38 87 67 198 85 325 16 116 13 1024 -3 1057 -20 42
-63 60 -198 82 -330 56 -634 166 -1004 365 -59 31 -100 33 -141 6z m202 -70
c308 -167 658 -286 980 -334 88 -14 101 -18 126 -47 l28 -31 -4 -516 c-4 -479
-5 -523 -24 -602 -59 -240 -145 -409 -311 -604 -168 -199 -507 -443 -836 -603
l-96 -46 -82 40 c-128 61 -311 168 -433 251 -412 281 -640 590 -727 987 -18
81 -21 139 -25 569 -6 513 -4 542 43 572 13 9 79 25 147 35 231 34 479 108
726 219 105 46 305 152 326 171 16 16 31 10 162 -61z"/>
<path d="M1174 2410 l-231 -5 -38 -29 c-48 -37 -184 -171 -207 -206 -23 -32
-23 -63 0 -83 16 -15 73 -16 536 -17 l518 0 128 127 c71 71 131 137 134 149 3
11 0 29 -8 40 -14 18 -32 19 -308 24 -161 3 -397 3 -524 0z m817 -36 c11 -14
-5 -33 -122 -150 l-136 -134 -514 2 -514 3 -3 24 c-3 19 20 46 118 140 l122
116 62 6 c33 3 266 6 517 7 406 2 458 0 470 -14z"/>
<path d="M1256 2003 c-1 -2 -110 -3 -242 -3 -273 -1 -310 -5 -325 -32 -19 -35
1 -71 94 -166 144 -146 110 -136 457 -139 322 -3 351 1 375 48 19 36 28 38 15
3 -6 -14 -10 -59 -10 -99 l0 -74 -25 24 -24 25 -301 0 c-248 0 -307 -3 -338
-15 -22 -9 -82 -61 -144 -125 -87 -88 -108 -115 -108 -138 0 -60 9 -62 308
-62 154 0 273 -4 277 -9 3 -5 -31 -48 -75 -96 -93 -101 -99 -122 -47 -182 86
-98 211 -222 242 -239 46 -25 60 -16 199 125 250 256 251 257 237 323 -11 47
-49 88 -84 88 -14 0 -67 -47 -163 -145 -78 -80 -149 -145 -157 -145 -23 0 -68
51 -59 67 4 7 73 79 154 160 80 82 148 158 152 169 4 12 2 33 -4 48 -15 42
-13 41 23 -6 160 -210 460 -198 602 23 61 94 70 229 22 330 -38 82 -88 134
-171 175 -67 33 -81 36 -153 35 -138 -1 -211 -39 -313 -161 -35 -42 -7 9 39
70 42 55 51 92 29 107 -11 7 -476 22 -482 16z m473 -36 c8 -11 3 -20 -20 -43
-44 -41 -93 -119 -113 -181 l-18 -53 -320 0 -321 0 -119 117 c-163 161 -165
157 77 163 105 3 332 7 506 8 253 2 319 -1 328 -11z m397 -52 c68 -33 137
-110 164 -183 56 -149 -18 -339 -160 -412 -169 -86 -375 -12 -456 165 -81 178
23 398 216 452 67 19 172 9 236 -22z m-532 -412 c10 -32 27 -73 38 -92 l19
-34 -165 -166 c-91 -92 -166 -173 -166 -182 0 -19 81 -99 100 -99 9 0 80 68
158 150 145 151 173 170 200 137 6 -7 14 -32 18 -55 8 -49 12 -43 -218 -279
-101 -104 -146 -143 -163 -143 -17 0 -59 37 -154 137 -72 75 -131 144 -131
152 0 9 51 69 113 133 l113 118 -325 2 c-310 3 -326 4 -329 22 -3 13 31 54
114 137 l119 119 321 0 320 0 18 -57z"/>
<path d="M2013 1673 l-90 -98 -28 33 c-16 19 -38 37 -49 42 -29 10 -65 -9 -73
-38 -5 -21 5 -35 64 -94 39 -37 77 -68 85 -68 8 0 60 46 116 103 151 153 160
168 124 200 -35 31 -56 20 -149 -80z m121 28 c-16 -35 -193 -211 -212 -211
-26 0 -116 95 -109 114 9 23 22 20 60 -14 19 -16 43 -30 53 -30 10 0 58 41
107 92 65 68 91 88 99 80 7 -7 8 -18 2 -31z"/>
</g>
</svg>
